<svg width="250" height="244" viewBox="0 0 250 244" fill="none" xmlns="http://www.w3.org/2000/svg">
<path d="M223.48 211H25.489V100.964C25.5047 97.8022 26.7631 94.7738 28.991 92.5345C31.2189 90.2952 34.237 89.0253 37.3924 89H211.553C214.713 89.019 217.737 90.286 219.97 92.526C222.203 94.766 223.465 97.7981 223.48 100.964V211Z" fill="white" stroke="#1361FF" stroke-miterlimit="10"/>
<path d="M240.811 242H9.18667C8.65681 241.998 8.13952 241.84 7.69954 241.545C7.25956 241.249 6.91669 240.83 6.71417 240.341C6.51165 239.851 6.45849 239.313 6.56136 238.793C6.66422 238.273 6.9183 237.795 7.29204 237.42L26.0937 212H223.941L242.718 237.42C243.092 237.796 243.347 238.275 243.449 238.796C243.552 239.317 243.498 239.856 243.294 240.346C243.09 240.836 242.745 241.255 242.303 241.549C241.861 241.844 241.342 242.001 240.811 242Z" fill="white" stroke="#1361FF" stroke-miterlimit="10"/>
<path d="M224.49 100.964V211H26.499V100.964C26.5147 97.8022 27.7731 94.7738 30.001 92.5345C32.2289 90.2952 35.247 89.0253 38.4024 89H212.563C215.723 89.019 218.747 90.286 220.98 92.526C223.213 94.766 224.475 97.7981 224.49 100.964Z" stroke="#1361FF" stroke-width="4" stroke-miterlimit="10"/>
<path d="M223.929 211L242.708 237.414C243.082 237.79 243.336 238.268 243.439 238.789C243.541 239.309 243.488 239.848 243.286 240.339C243.083 240.829 242.74 241.248 242.3 241.544C241.86 241.84 241.343 241.998 240.813 242H9.17656C8.64667 241.998 8.12935 241.84 7.68935 241.544C7.24935 241.248 6.90646 240.829 6.70393 240.339C6.5014 239.848 6.44824 239.309 6.55111 238.789C6.65398 238.268 6.90806 237.79 7.28183 237.414L26.0845 211" stroke="#1361FF" stroke-width="4" stroke-miterlimit="10"/>
<path d="M151.499 242L148.436 232.462C148.355 232.322 148.241 232.205 148.104 232.124C147.967 232.043 147.813 232 147.655 232H103.345C103.188 232.002 103.033 232.045 102.897 232.126C102.76 232.207 102.646 232.322 102.564 232.462L99.501 242H151.499Z" fill="#E7EEFC" stroke="#1361FF" stroke-width="4" stroke-linecap="round" stroke-linejoin="round"/>
<path d="M199.938 100H50.0621C42.0219 100 35.5039 106.486 35.5039 114.487V186.513C35.5039 194.514 42.0219 201 50.0621 201H199.938C207.978 201 214.496 194.514 214.496 186.513V114.487C214.496 106.486 207.978 100 199.938 100Z" stroke="#1361FF" stroke-width="4" stroke-miterlimit="10"/>
<path d="M29.5042 221H221.496" stroke="#1361FF" stroke-width="4" stroke-miterlimit="10" stroke-linecap="round"/>
<path d="M10.9364 155H97.0581C98.9658 155 100.501 153.46 100.501 149.792V6.67162C100.072 6.17116 99.5451 5.76444 98.9527 5.47685C98.3603 5.18926 97.7158 5.02706 97.0581 5H10.9364C10.2808 5.02868 9.63784 5.19166 9.04764 5.4792C8.45744 5.76674 7.93268 6.1726 7.50513 6.67162V149.792C7.50513 153.46 9.0407 155 10.9364 155Z" fill="white" stroke="#1361FF" stroke-width="4" stroke-linecap="round" stroke-linejoin="round"/>
<path d="M99.5011 15H7.50513" stroke="#1361FF" stroke-width="4" stroke-linecap="round" stroke-linejoin="round"/>
<path d="M7.50513 140H99.5011" stroke="#1361FF" stroke-width="4" stroke-linecap="round" stroke-linejoin="round"/>
<path d="M58.5032 147H50.5032" stroke="#1361FF" stroke-width="4" stroke-linecap="round" stroke-linejoin="round"/>
<path d="M62.5027 61H124.5V170" stroke="#1361FF" stroke-width="4" stroke-linecap="round" stroke-linejoin="round"/>
<path d="M54.0033 70C58.6978 70 62.5034 66.1944 62.5034 61.5C62.5034 56.8056 58.6978 53 54.0033 53C49.3089 53 45.5034 56.8056 45.5034 61.5C45.5034 66.1944 49.3089 70 54.0033 70Z" fill="#E7EEFC" stroke="#1361FF" stroke-width="4" stroke-linecap="round" stroke-linejoin="round"/>
<path d="M124.001 183C128.695 183 132.5 179.194 132.5 174.5C132.5 169.806 128.695 166 124.001 166C119.306 166 115.5 169.806 115.5 174.5C115.5 179.194 119.306 183 124.001 183Z" fill="#E7EEFC" stroke="#1361FF" stroke-width="4" stroke-linecap="round" stroke-linejoin="round"/>
<path d="M168.25 98.3937C173.831 74.7428 159.183 51.0443 135.534 45.4613C111.884 39.8783 88.1883 54.525 82.6074 78.1759C77.0265 101.827 91.6739 125.526 115.323 131.109C138.973 136.692 162.669 122.045 168.25 98.3937Z" fill="white" stroke="#1361FF" stroke-width="4" stroke-linecap="round" stroke-linejoin="round"/>
<path d="M175.498 43.2296C190.917 27.4326 207.721 28.8633 222.496 44" stroke="#1361FF" stroke-width="4" stroke-linecap="round" stroke-linejoin="round"/>
<path d="M164.498 32.907C185.407 12.0546 212.093 13.6881 232.495 34" stroke="#1361FF" stroke-width="4" stroke-linecap="round" stroke-linejoin="round"/>
<path d="M154.499 21.5806C181.859 -5.78729 216.796 -3.68216 243.495 23" stroke="#1361FF" stroke-width="4" stroke-linecap="round" stroke-linejoin="round"/>
<path d="M204.246 61.6825C207.559 58.3562 207.39 52.8156 203.869 49.3073C200.348 45.7989 194.808 45.6514 191.495 48.9776C188.183 52.3038 188.352 57.844 191.873 61.3524C195.394 64.8608 200.934 65.0087 204.246 61.6825Z" fill="#E7EEFC" stroke="#1361FF" stroke-width="4" stroke-linecap="round" stroke-linejoin="round"/>
<path d="M157.224 96.3024C161.347 78.833 150.527 61.3282 133.059 57.2044C115.591 53.0806 98.088 63.8994 93.9657 81.3688C89.8435 98.8382 100.663 116.343 118.131 120.467C135.599 124.591 153.102 113.772 157.224 96.3024Z" fill="#E7EEFC" stroke="#1361FF" stroke-width="4" stroke-linecap="round" stroke-linejoin="round"/>
<path d="M123.253 56C123.253 56 87.6459 87.0556 123.501 121" stroke="#1361FF" stroke-width="4" stroke-miterlimit="10"/>
<path d="M125.5 121V56" stroke="#1361FF" stroke-width="4" stroke-miterlimit="10"/>
<path d="M93.5015 89H158.499" stroke="#1361FF" stroke-width="4" stroke-miterlimit="10"/>
<path d="M98.5012 108C116.822 100 134.19 100 152.499 108" stroke="#1361FF" stroke-width="4" stroke-miterlimit="10"/>
<path d="M98.5012 71C116.822 79 134.19 79 152.499 71" stroke="#1361FF" stroke-width="4" stroke-miterlimit="10"/>
<path d="M128.738 56C128.738 56 162.11 88.5 128.5 121" stroke="#1361FF" stroke-width="4" stroke-miterlimit="10"/>
</svg>
