<svg width="250" height="242" viewBox="0 0 250 242" fill="none" xmlns="http://www.w3.org/2000/svg">
<path d="M201.114 156.111C212.677 156.121 223.817 151.757 232.302 143.894C240.787 136.032 245.989 125.25 246.867 113.711C247.746 102.171 244.236 90.725 237.039 81.6662C229.843 72.6074 219.492 66.6048 208.061 64.861C208.466 62.7498 208.673 60.6051 208.68 58.4553C208.681 52.5928 207.17 46.8293 204.293 41.7231C201.415 36.6169 197.268 32.341 192.254 29.3098C187.241 26.2786 181.53 24.5948 175.675 24.4214C169.82 24.2481 164.02 25.5913 158.836 28.3206C151.587 17.6763 141.121 9.63693 128.973 5.38207C116.825 1.12721 103.635 0.880577 91.3368 4.67862C79.0386 8.47667 68.2798 16.1194 60.6393 26.4855C52.9987 36.8517 48.8781 49.3958 48.8822 62.2775C48.8822 62.9561 48.9537 63.6109 48.9775 64.2776H48.8822C42.8574 64.2761 36.8914 65.4625 31.3248 67.769C25.7581 70.0755 20.6999 73.4568 16.4392 77.7202C12.1785 81.9836 8.79863 87.0452 6.49267 92.6162C4.18672 98.1871 3 104.158 3 110.188C3 135.549 23.544 153.575 48.8822 153.575L201.114 156.111Z" fill="#E7EEFC" stroke="#1361FF" stroke-width="4" stroke-linecap="round" stroke-linejoin="round"/>
<path d="M232.5 110.078C232.494 118.283 229.23 126.152 223.421 131.965C217.612 137.778 209.731 141.063 201.5 141.1" stroke="#1361FF" stroke-width="4" stroke-linecap="round" stroke-linejoin="round"/>
<path d="M64.584 64.0447C64.584 63.5923 64.5842 63.152 64.5 62.6996V62.4139C64.5477 50.3661 69.4132 38.8269 78.033 30.3189C86.6529 21.811 98.3256 17.0264 110.5 17.0108" stroke="#1361FF" stroke-width="4" stroke-linecap="round" stroke-linejoin="round"/>
<path d="M49.5 139.099C31.5387 139.099 18.5 126.897 18.5 110.078" stroke="#1361FF" stroke-width="4" stroke-linecap="round" stroke-linejoin="round"/>
<path d="M110.5 129.091V229.164H69.5" stroke="#1361FF" stroke-width="4" stroke-linecap="round" stroke-linejoin="round"/>
<path d="M165.5 126.089V184.131H188.5" stroke="#1361FF" stroke-width="4" stroke-linecap="round" stroke-linejoin="round"/>
<path d="M84.5 126.089V193.138H45.5" stroke="#1361FF" stroke-width="4" stroke-linecap="round" stroke-linejoin="round"/>
<path d="M47 204.145C52.799 204.145 57.5 199.441 57.5 193.638C57.5 187.835 52.799 183.13 47 183.13C41.201 183.13 36.5 187.835 36.5 193.638C36.5 199.441 41.201 204.145 47 204.145Z" fill="white" stroke="#1361FF" stroke-width="4" stroke-linecap="round" stroke-linejoin="round"/>
<path d="M142.5 128.091V218.156H181.5" stroke="#1361FF" stroke-width="4" stroke-linecap="round" stroke-linejoin="round"/>
<path d="M182.54 229.189C188.183 227.855 191.679 222.195 190.348 216.547C189.017 210.899 183.363 207.401 177.719 208.735C172.075 210.069 168.579 215.729 169.91 221.377C171.241 227.026 176.896 230.523 182.54 229.189Z" fill="white" stroke="#1361FF" stroke-width="4" stroke-linecap="round" stroke-linejoin="round"/>
<path d="M84.3479 231.773C85.679 226.125 82.1831 220.465 76.5394 219.131C70.8957 217.797 65.2414 221.294 63.9102 226.943C62.5791 232.591 66.0751 238.251 71.7188 239.585C77.3625 240.919 83.0167 237.421 84.3479 231.773Z" fill="white" stroke="#1361FF" stroke-width="4" stroke-linecap="round" stroke-linejoin="round"/>
<path d="M199 193.138C204.799 193.138 209.5 188.433 209.5 182.63C209.5 176.827 204.799 172.122 199 172.122C193.201 172.122 188.5 176.827 188.5 182.63C188.5 188.433 193.201 193.138 199 193.138Z" fill="white" stroke="#1361FF" stroke-width="4" stroke-linecap="round" stroke-linejoin="round"/>
<path d="M114.5 61.0425V108.076H108.5V61.0425H114.5Z" fill="#1361FF"/>
<path d="M125.5 61.9678C129.356 61.3331 133.258 61.0239 137.164 61.0433C143.162 61.0433 147.56 62.46 150.358 65.0052C151.721 66.2633 152.797 67.808 153.51 69.5313C154.222 71.2545 154.554 73.1149 154.483 74.9818C154.574 76.8384 154.3 78.6949 153.675 80.4428C153.05 82.1908 152.088 83.7951 150.844 85.1623C147.631 88.6319 142.392 90.3965 136.465 90.3965C134.823 90.4486 133.18 90.3078 131.569 89.9765V109.077H125.5V61.9678ZM131.569 84.9581C133.219 85.3293 134.906 85.4948 136.595 85.4505C143.933 85.4505 148.449 81.8488 148.449 75.2579C148.449 68.967 144.051 65.9296 137.342 65.9296C135.421 65.8726 133.5 66.0377 131.616 66.4217L131.569 84.9581Z" fill="#1361FF"/>
</svg>
