<svg width="250" height="244" viewBox="0 0 250 244" fill="none" xmlns="http://www.w3.org/2000/svg">
<path d="M103.5 125.94V66.7332C103.5 42.6312 122.661 23 146.278 23H170.722C194.351 23 213.5 42.5829 213.5 66.7332V126" fill="#E7EEFC"/>
<path d="M103.5 125.94V66.7332C103.5 42.6312 122.661 23 146.278 23H170.722C194.351 23 213.5 42.5829 213.5 66.7332V126" stroke="#1361FF" stroke-width="4" stroke-linecap="round" stroke-linejoin="round"/>
<path d="M104.5 123.151C105.535 95.2095 110.205 80.1614 120.446 63.9399C125.465 56.0028 133.347 46.9761 141.543 47L165.529 47.06C174.11 47.06 182.198 56.6373 187.288 65.1491C197.025 81.3346 201.489 95.9158 202.5 123.163V124.228C202.5 142.88 180.56 158 153.506 158C126.451 158 104.5 142.88 104.5 124.228V123.151Z" fill="white" stroke="#1361FF" stroke-width="4" stroke-linecap="round" stroke-linejoin="round"/>
<path d="M153.5 57C168.412 57 180.5 44.6878 180.5 29.5C180.5 14.3122 168.412 2 153.5 2C138.588 2 126.5 14.3122 126.5 29.5C126.5 44.6878 138.588 57 153.5 57Z" fill="white" stroke="#1361FF" stroke-width="4" stroke-linecap="round" stroke-linejoin="round"/>
<path d="M125.9 26H70.0996C57.0659 26 46.5 36.5379 46.5 49.537V80.463C46.5 93.4621 57.0659 104 70.0996 104H125.9C138.934 104 149.5 93.4621 149.5 80.463V49.537C149.5 36.5379 138.934 26 125.9 26Z" fill="#E7EEFC" stroke="#1361FF" stroke-width="4" stroke-linecap="round" stroke-linejoin="round"/>
<path d="M89.5 117V73.4655C89.5 71.2203 90.395 69.067 91.9879 67.4793C93.5808 65.8917 95.7411 65 97.9939 65C99.1103 64.9984 100.216 65.216 101.248 65.6408C102.28 66.0655 103.218 66.689 104.008 67.4752C104.798 68.2615 105.425 69.1952 105.852 70.223C106.28 71.2509 106.5 72.3528 106.5 73.4655V117" fill="white"/>
<path d="M89.5 117V73.4655C89.5 71.2203 90.395 69.067 91.9879 67.4793C93.5808 65.8917 95.7411 65 97.9939 65C99.1103 64.9984 100.216 65.216 101.248 65.6408C102.28 66.0655 103.218 66.689 104.008 67.4752C104.798 68.2615 105.425 69.1952 105.852 70.223C106.28 71.2509 106.5 72.3528 106.5 73.4655V117" stroke="#1361FF" stroke-width="4" stroke-linecap="round" stroke-linejoin="round"/>
<path d="M170.512 99.0006H171.608C174.762 99.0006 177.787 100.259 180.017 102.5C182.247 104.74 183.5 107.779 183.5 110.948C183.5 112.553 182.865 114.092 181.736 115.227C180.606 116.362 179.074 117 177.476 117H164.524C162.926 117 161.394 116.362 160.264 115.227C159.135 114.092 158.5 112.553 158.5 110.948C158.5 109.369 158.811 107.805 159.417 106.348C160.022 104.89 160.908 103.568 162.025 102.457C163.143 101.346 164.468 100.468 165.924 99.8751C167.381 99.2818 168.94 98.9846 170.512 99.0006Z" fill="white" stroke="#1361FF" stroke-width="4" stroke-linecap="round" stroke-linejoin="round"/>
<path d="M19.5 127V239.788C19.5 240.339 19.7192 240.869 20.1092 241.259C20.4992 241.649 21.0279 241.868 21.5794 241.868H67.6166L228.421 242C228.694 242.002 228.965 241.949 229.218 241.845C229.471 241.741 229.701 241.588 229.895 241.394C230.088 241.201 230.241 240.971 230.345 240.718C230.449 240.465 230.502 240.194 230.5 239.92V127H19.5Z" fill="white" stroke="#1361FF" stroke-width="4" stroke-linecap="round" stroke-linejoin="round"/>
<path d="M16.7302 127L233.27 127C236.158 127 238.5 124.764 238.5 122.006V121.994C238.5 119.236 236.158 117 233.27 117L16.7302 117C13.8417 117 11.5 119.236 11.5 121.994V122.006C11.5 124.764 13.8417 127 16.7302 127Z" fill="#E7EEFC" stroke="#1361FF" stroke-width="4" stroke-linecap="round" stroke-linejoin="round"/>
<path d="M230.5 159H19.5" stroke="#1361FF" stroke-width="4" stroke-linecap="round" stroke-linejoin="round"/>
</svg>
