<svg width="250" height="244" viewBox="0 0 250 244" fill="none" xmlns="http://www.w3.org/2000/svg">
<path d="M60.3958 57.5217C62.4891 48.6526 56.9962 39.7659 48.1272 37.6727C39.2582 35.5794 30.3715 41.0722 28.2783 49.9412C26.185 58.8102 31.6778 67.6969 40.5468 69.7902C49.4158 71.8835 58.3025 66.3907 60.3958 57.5217Z" fill="white" stroke="#1361FF" stroke-width="4" stroke-linecap="round" stroke-linejoin="round"/>
<path d="M205.988 71C215.101 71 222.488 63.6127 222.488 54.5C222.488 45.3873 215.101 38 205.988 38C196.875 38 189.488 45.3873 189.488 54.5C189.488 63.6127 196.875 71 205.988 71Z" fill="white" stroke="#1361FF" stroke-width="4" stroke-linecap="round" stroke-linejoin="round"/>
<path d="M242.729 100.498L226.832 79.5063L226.713 79.3501C224.893 77.0522 222.582 75.1978 219.951 73.9251C217.321 72.6525 214.439 71.9943 211.521 72H203.877C200.13 71.9942 196.461 73.0851 193.318 75.1398L193.151 75.2482C189.771 77.4616 186.343 81.1545 182.724 85.052C179.921 88.2605 176.874 91.2447 173.611 93.9777C173.169 94.3146 172.64 94.5165 172.088 94.5592C171.535 94.6018 170.981 94.4837 170.494 94.2185L155.994 86.3513C154.014 85.2761 151.691 85.0369 149.537 85.6866C147.382 86.3364 145.572 87.8216 144.504 89.8156C143.437 91.8096 143.199 94.149 143.844 96.3192C144.489 98.4894 145.964 100.313 147.944 101.388L162.456 109.267C165.808 111.079 169.605 111.885 173.399 111.591C177.192 111.297 180.821 109.914 183.859 107.607C184.516 107.102 185.173 106.56 185.818 106.007V147.124C185.818 147.268 185.818 147.4 185.818 147.544L175.737 231.75C175.451 234.131 176.115 236.53 177.584 238.418C179.053 240.307 181.208 241.53 183.572 241.818C183.933 241.866 184.295 241.89 184.659 241.891C186.855 241.889 188.975 241.076 190.617 239.606C192.259 238.137 193.309 236.112 193.569 233.915L201.608 166.719C202.97 167.014 204.358 167.164 205.752 167.164C207.124 167.166 208.493 167.024 209.836 166.743L216.25 233.807C216.467 236.043 217.501 238.119 219.152 239.631C220.803 241.143 222.953 241.982 225.184 241.987C225.475 242.004 225.766 242.004 226.056 241.987C227.23 241.874 228.37 241.529 229.411 240.972C230.452 240.415 231.373 239.656 232.123 238.74C232.873 237.824 233.436 236.768 233.78 235.633C234.125 234.497 234.244 233.305 234.13 232.123L225.77 144.14V106.236L227.429 108.437L226.522 137.067C226.454 139.331 227.282 141.531 228.822 143.181C230.363 144.832 232.491 145.8 234.739 145.872H235.014C237.216 145.867 239.331 145.002 240.913 143.458C242.495 141.915 243.42 139.813 243.494 137.596L244.485 105.923C244.533 103.966 243.913 102.051 242.729 100.498Z" fill="white" stroke="#1361FF" stroke-width="4" stroke-linecap="round" stroke-linejoin="round"/>
<path d="M104.996 70.4239C103.694 69.161 102.021 68.3422 100.22 68.086C98.4181 67.8298 96.5808 68.1496 94.9743 68.999L75.6788 79.1656C74.359 79.8859 72.8431 80.1709 71.3495 79.9798C66.1143 78.9902 61.0086 77.4156 56.1301 75.2858L55.9616 75.2138C52.1591 73.5652 48.0512 72.7249 43.902 72.747H38.7766C35.8315 72.7405 32.9226 73.3955 30.2683 74.6625C27.614 75.9295 25.2825 77.7758 23.4482 80.0637L23.3157 80.2192L7.26421 101.115C6.07233 102.671 5.45533 104.586 5.51591 106.54L6.52874 138.07C6.59764 140.276 7.52864 142.37 9.12439 143.908C10.7201 145.445 12.8553 146.306 15.0789 146.308H15.3562C17.6264 146.236 19.7751 145.273 21.3307 143.63C22.8863 141.986 23.722 139.797 23.6537 137.543L22.7369 109.043L24.4133 106.851V144.584L15.9716 232.168C15.8568 233.344 15.9766 234.531 16.3243 235.662C16.672 236.792 17.2407 237.843 17.9978 238.755C18.7549 239.667 19.686 240.422 20.7371 240.976C21.7883 241.531 22.9387 241.874 24.1236 241.987C24.4168 242.004 24.7108 242.004 25.004 241.987C27.2577 241.985 29.4303 241.15 31.098 239.645C32.7656 238.14 33.8088 236.072 34.0246 233.844L40.5008 167.084C41.8575 167.364 43.2395 167.504 44.6251 167.504C46.0318 167.503 47.4348 167.354 48.81 167.06L56.9262 233.952C57.1912 236.138 58.2521 238.152 59.9093 239.614C61.5665 241.077 63.7055 241.886 65.9227 241.891C66.2896 241.89 66.6564 241.867 67.0203 241.819C69.4087 241.532 71.5846 240.315 73.0701 238.435C74.5557 236.556 75.2292 234.168 74.9433 231.796L64.7526 147.973C64.7526 147.829 64.7526 147.697 64.7526 147.554V96.0621C66.1154 96.3735 67.5024 96.6368 68.8652 96.8404C73.9619 97.5417 79.1513 96.6194 83.6866 94.206L102.982 84.0394C104.923 83.0124 106.392 81.2817 107.081 79.2077C107.771 77.1336 107.628 74.8756 106.684 72.9028L104.996 70.4239Z" fill="white" stroke="#1361FF" stroke-width="4" stroke-linecap="round" stroke-linejoin="round"/>
<path d="M186.5 136C190.918 136 194.5 132.418 194.5 128C194.5 123.582 190.918 120 186.5 120C182.082 120 178.5 123.582 178.5 128C178.5 132.418 182.082 136 186.5 136Z" fill="#E7EEFC" stroke="#1361FF" stroke-width="4" stroke-linecap="round" stroke-linejoin="round"/>
<path d="M65.5 132C69.9182 132 73.5 128.418 73.5 124C73.5 119.582 69.9182 116 65.5 116C61.0817 116 57.5 119.582 57.5 124C57.5 128.418 61.0817 132 65.5 132Z" fill="#E7EEFC" stroke="#1361FF" stroke-width="4" stroke-linecap="round" stroke-linejoin="round"/>
<path d="M70.5 130L86.0964 145.032L163.299 148L178.5 135.078" stroke="#1361FF" stroke-width="4" stroke-linecap="round" stroke-linejoin="round"/>
<path d="M125.5 219C151.457 219 172.5 197.957 172.5 172C172.5 146.043 151.457 125 125.5 125C99.5426 125 78.5 146.043 78.5 172C78.5 197.957 99.5426 219 125.5 219Z" fill="white" stroke="#1361FF" stroke-width="4" stroke-linecap="round" stroke-linejoin="round"/>
<path d="M151.989 199.163C166.438 184.713 166.438 161.287 151.989 146.837C137.54 132.388 114.113 132.387 99.6632 146.837C85.2137 161.286 85.2137 184.714 99.6631 199.163C114.112 213.612 137.54 213.612 151.989 199.163Z" fill="#E7EEFC" stroke="#1361FF" stroke-width="4" stroke-linecap="round" stroke-linejoin="round"/>
<path d="M121.196 136C118.25 138.842 84.959 172.404 121.5 209" stroke="#1361FF" stroke-width="4" stroke-linecap="round" stroke-linejoin="round"/>
<path d="M125.5 210V136" stroke="#1361FF" stroke-width="4" stroke-linecap="round" stroke-linejoin="round"/>
<path d="M88.5 173H162.5" stroke="#1361FF" stroke-width="4" stroke-linecap="round" stroke-linejoin="round"/>
<path d="M94.5 192.865C115.136 184.95 133.864 185.096 154.5 193" stroke="#1361FF" stroke-width="4" stroke-linecap="round" stroke-linejoin="round"/>
<path d="M94.5 153C115.192 161 134.82 161 155.5 153" stroke="#1361FF" stroke-width="4" stroke-linecap="round" stroke-linejoin="round"/>
<path d="M129.8 136C132.977 139.192 165.92 174.066 129.5 209" stroke="#1361FF" stroke-width="4" stroke-linecap="round" stroke-linejoin="round"/>
<path d="M85.5 32.1414C85.5 15.5009 103.41 2 125.506 2C147.602 2 165.5 15.5009 165.5 32.1414C165.5 44.5799 155.508 55.2637 141.232 59.8595C141.028 59.9278 140.842 60.0443 140.692 60.199C140.542 60.3537 140.432 60.5422 140.371 60.7483C140.31 60.9545 140.3 61.1724 140.341 61.3834C140.382 61.5944 140.474 61.7923 140.609 61.9604C143.655 65.3723 147.227 68.2813 151.189 70.579C151.336 70.6657 151.45 70.7984 151.512 70.9564C151.575 71.1145 151.582 71.2887 151.534 71.4516C151.486 71.6145 151.385 71.7569 151.246 71.8561C151.108 71.9553 150.94 72.0057 150.769 71.9995C145.011 71.8443 132.104 70.6745 124.066 63.6435C123.097 62.7624 121.869 62.2145 120.564 62.0799C100.795 60.2416 85.5 47.5523 85.5 32.1653" fill="#E7EEFC"/>
<path d="M85.5 32.1414C85.5 15.5009 103.41 2 125.506 2C147.602 2 165.5 15.5009 165.5 32.1414C165.5 44.5799 155.508 55.2637 141.232 59.8595C141.028 59.9278 140.842 60.0443 140.692 60.199C140.542 60.3537 140.432 60.5422 140.371 60.7483C140.31 60.9545 140.3 61.1724 140.341 61.3834C140.382 61.5944 140.474 61.7923 140.609 61.9604C143.655 65.3723 147.227 68.2813 151.189 70.579C151.336 70.6657 151.45 70.7984 151.512 70.9564C151.575 71.1145 151.582 71.2887 151.534 71.4516C151.486 71.6145 151.385 71.7569 151.246 71.8561C151.108 71.9553 150.94 72.0057 150.769 71.9995C145.011 71.8443 132.104 70.6745 124.066 63.6435C123.097 62.7624 121.869 62.2145 120.564 62.0799C100.795 60.2416 85.5 47.5523 85.5 32.1653" stroke="#1361FF" stroke-width="4" stroke-linecap="round" stroke-linejoin="round"/>
<path d="M105 37C107.485 37 109.5 34.9853 109.5 32.5C109.5 30.0147 107.485 28 105 28C102.515 28 100.5 30.0147 100.5 32.5C100.5 34.9853 102.515 37 105 37Z" fill="white" stroke="#1361FF" stroke-width="4" stroke-linecap="round" stroke-linejoin="round"/>
<path d="M124 37C126.485 37 128.5 34.9853 128.5 32.5C128.5 30.0147 126.485 28 124 28C121.515 28 119.5 30.0147 119.5 32.5C119.5 34.9853 121.515 37 124 37Z" fill="white" stroke="#1361FF" stroke-width="4" stroke-linecap="round" stroke-linejoin="round"/>
<path d="M145 37C147.485 37 149.5 34.9853 149.5 32.5C149.5 30.0147 147.485 28 145 28C142.515 28 140.5 30.0147 140.5 32.5C140.5 34.9853 142.515 37 145 37Z" fill="white" stroke="#1361FF" stroke-width="4" stroke-linecap="round" stroke-linejoin="round"/>
</svg>
