<svg width="250" height="244" viewBox="0 0 250 244" fill="none" xmlns="http://www.w3.org/2000/svg">
<path d="M68.5198 181.251L77.772 174.817L71.1737 169.314L73.3613 159C62.1491 161.734 48.6774 164.515 38.1824 167.177C33.5507 168.347 29.3246 170.752 25.9559 174.135C22.5872 177.518 20.2025 181.752 19.0571 186.384L10.4983 242H89.4983L80.1743 216.156L68.5198 181.251Z" fill="white" stroke="#1361FF" stroke-width="4" stroke-linecap="round" stroke-linejoin="round"/>
<path d="M89.4204 153C87.7836 154.336 85.8881 155.327 83.8496 155.914C81.0093 156.721 77.8158 157.54 74.4391 158.322L72.2082 168.727L78.9372 174.278L69.5017 180.768L81.3753 215.93L90.8834 242H99.5017L91.359 204.346L89.4204 153Z" fill="#E7EEFC" stroke="#1361FF" stroke-width="4" stroke-linecap="round" stroke-linejoin="round"/>
<path d="M177.502 180.961L168.067 174.487L174.796 168.95L172.504 158.273C169.163 157.588 166.055 156.879 163.422 156.135C161.271 155.521 159.282 154.451 157.595 153L155.644 204.478L147.502 242H156.132L165.629 216.033L177.502 180.961Z" fill="#E7EEFC" stroke="#1361FF" stroke-width="4" stroke-linecap="round" stroke-linejoin="round"/>
<path d="M157.002 152.956C155.353 151.529 154.031 149.764 153.124 147.781C152.216 145.797 151.746 143.642 151.744 141.461V127.395L153.628 125.293C158.601 119.721 161.836 112.814 162.933 105.425C162.933 105.425 167.928 105.425 168.648 100.945C170.881 87.095 172.502 86.5307 172.502 80.4166C172.502 74.3026 170.245 72.897 167.519 74.4705C168.376 71.435 168.844 68.3028 168.912 65.1493C169.836 32.441 148.274 11 123.002 11C97.7294 11 76.1787 32.441 77.0911 65.1493C77.1563 68.3022 77.6207 71.4342 78.4723 74.4705C75.759 72.897 73.5017 74.3386 73.5017 80.4166C73.5017 86.4946 75.1101 87.095 77.3432 100.945C78.0756 105.461 83.0583 105.425 83.0583 105.425C84.1593 112.815 87.3976 119.722 92.3745 125.293L94.2475 127.395V141.461C94.2483 143.699 93.7564 145.91 92.806 147.936C91.8556 149.963 90.47 151.754 88.7488 153.184L90.6581 204.439L98.6776 242H147.061L155.081 204.475L157.002 152.956Z" fill="white" stroke="#1361FF" stroke-width="4" stroke-linecap="round" stroke-linejoin="round"/>
<path d="M229.963 184.932C228.814 180.253 226.41 175.976 223.011 172.56C219.611 169.144 215.345 166.718 210.67 165.543C199.817 162.796 183.984 160.567 171.697 158L173.963 168.713L167.307 174.267L176.641 180.762L164.895 215.948L155.502 242H239.502L229.963 184.932Z" fill="white" stroke="#1361FF" stroke-width="4" stroke-linecap="round" stroke-linejoin="round"/>
<path d="M94.5 128L114.139 139.043C117.459 140.407 121.011 141.07 124.585 140.994C128.158 140.918 131.681 140.105 134.944 138.601L151.5 128.037" fill="white"/>
<path d="M94.5 128L114.139 139.043C117.459 140.407 121.011 141.07 124.585 140.994C128.158 140.918 131.681 140.105 134.944 138.601L151.5 128.037" stroke="#1361FF" stroke-width="4" stroke-linecap="round" stroke-linejoin="round"/>
<path d="M93.6293 144L122.5 162.506L100.449 181L88.5 153.33L93.6293 144Z" fill="#E7EEFC" stroke="#1361FF" stroke-width="4" stroke-linecap="round" stroke-linejoin="round"/>
<path d="M151.371 144L122.5 162.506L144.551 181L156.5 153.045L151.371 144Z" fill="#E7EEFC" stroke="#1361FF" stroke-width="4" stroke-linecap="round" stroke-linejoin="round"/>
<path d="M184.563 72H186.454C189.732 72.2816 192.895 77.3258 192.46 83.1901C192.024 89.0545 187.588 93.2905 184.31 92.9844H182.5" fill="white"/>
<path d="M184.563 72H186.454C189.732 72.2816 192.895 77.3258 192.46 83.1901C192.024 89.0545 187.588 93.2905 184.31 92.9844H182.5" stroke="#1361FF" stroke-width="4" stroke-linecap="round" stroke-linejoin="round"/>
<path d="M75.5983 59C64.8587 60.5336 57.8008 72.9944 59.8557 86.833C61.9107 100.672 72.7604 110.365 83.5 108.843L75.5983 59Z" fill="#E7EEFC" stroke="#1361FF" stroke-width="4" stroke-linecap="round" stroke-linejoin="round"/>
<path d="M162.5 105.892C172.856 107.164 182.601 97.0263 184.259 83.2519C185.916 69.4775 178.863 57.2717 168.507 56L162.5 105.892Z" fill="#E7EEFC" stroke="#1361FF" stroke-width="4" stroke-linecap="round" stroke-linejoin="round"/>
<path d="M191.5 87C185.229 121.892 163.912 128.906 134.5 125.056" stroke="#1361FF" stroke-width="4" stroke-linecap="round" stroke-linejoin="round"/>
<path d="M135.48 122.778C135.169 126.059 130.907 128.378 125.904 127.949C120.9 127.52 117.165 124.471 117.524 121.213C117.883 117.955 122.097 115.613 127.101 116.053C132.105 116.494 135.804 119.485 135.48 122.778Z" fill="#E7EEFC" stroke="#1361FF" stroke-width="4" stroke-linecap="round" stroke-linejoin="round"/>
<path d="M68.692 61C68.5601 59.4912 68.5 57.9703 68.5 56.4255C68.5 41.991 74.242 28.1477 84.4627 17.9409C94.6835 7.73413 108.545 2 123 2C137.454 2 151.317 7.73413 161.537 17.9409C171.758 28.1477 177.5 41.991 177.5 56.4255C177.5 57.2278 177.5 58.0302 177.44 58.8205" stroke="#1361FF" stroke-width="4" stroke-linecap="round" stroke-linejoin="round"/>
<path d="M166.5 79.4547L162.824 66.6446C161.147 60.791 157.65 57.8823 155.052 54.6828L146.896 43L143.172 46.3449C132.526 55.8949 118.79 56.7794 104.564 56.7794C97.9754 56.7712 91.6024 59.1533 86.6009 63.4935C84.7023 65.1509 83.3073 67.3195 82.5774 69.7472L79.5 80" fill="white"/>
<path d="M166.5 79.4547L162.824 66.6446C161.147 60.791 157.65 57.8823 155.052 54.6828L146.896 43L143.172 46.3449C132.526 55.8949 118.79 56.7794 104.564 56.7794C97.9754 56.7712 91.6024 59.1533 86.6009 63.4935C84.7023 65.1509 83.3073 67.3195 82.5774 69.7472L79.5 80" stroke="#1361FF" stroke-width="4" stroke-linecap="round" stroke-linejoin="round"/>
<path d="M205.5 209H177.5V218H205.5V209Z" fill="#E7EEFC" stroke="#1361FF" stroke-width="4" stroke-linecap="round" stroke-linejoin="round"/>
</svg>
