<svg width="14" height="9" viewBox="0 0 14 9" fill="none" xmlns="http://www.w3.org/2000/svg">
<path fill-rule="evenodd" clip-rule="evenodd" d="M7.88449 8.05396C7.69697 8.24143 7.44266 8.34675 7.17749 8.34675C6.91233 8.34675 6.65802 8.24143 6.47049 8.05396L0.813493 2.39696C0.717982 2.30471 0.6418 2.19437 0.589391 2.07237C0.536982 1.95036 0.509397 1.81914 0.508243 1.68636C0.507089 1.55358 0.532391 1.4219 0.582671 1.29901C0.632952 1.17611 0.707206 1.06446 0.801099 0.970566C0.894992 0.876674 1.00664 0.802421 1.12954 0.75214C1.25243 0.701859 1.38412 0.676557 1.51689 0.677711C1.64967 0.678865 1.78089 0.706451 1.9029 0.75886C2.0249 0.811269 2.13525 0.887451 2.22749 0.982961L7.17749 5.93296L12.1275 0.982961C12.3161 0.800803 12.5687 0.700009 12.8309 0.702287C13.0931 0.704566 13.3439 0.809734 13.5293 0.995143C13.7147 1.18055 13.8199 1.43136 13.8222 1.69356C13.8244 1.95576 13.7237 2.20836 13.5415 2.39696L7.88449 8.05396Z" fill="#020D1D"/>
</svg>
