<svg width="80" height="80" viewBox="0 0 80 80" fill="none" xmlns="http://www.w3.org/2000/svg">
<path d="M51.5648 46.8701C51.8415 47.1459 52.054 47.4792 52.1869 47.8464C53.0122 50.1239 52.6375 52.2976 51.1686 53.8396C48.8058 56.3193 45.3757 57.4322 40.0451 57.4481C34.7389 57.4304 31.3608 56.3705 28.9999 54.0123L28.825 53.8376C27.3556 52.297 26.9783 50.1251 27.7953 47.8721C28.033 47.2121 28.5191 46.6708 29.1501 46.3632C29.7812 46.0556 30.5075 46.006 31.1748 46.2248L36.0306 47.8585C36.4217 47.9908 36.7772 48.2111 37.0697 48.5023C37.4231 48.8527 37.6713 49.2949 37.7859 49.7789C37.9005 50.2628 37.8771 50.7691 37.7182 51.2404C37.664 51.4029 37.6117 51.5561 37.5593 51.6981C39.1603 52.0738 40.8262 52.076 42.4279 51.7045C42.3802 51.5653 42.3203 51.4103 42.2689 51.2449C42.0468 50.5734 42.0994 49.8415 42.4151 49.2087C42.7308 48.5759 43.2841 48.0935 43.9545 47.8664L48.8087 46.2334C49.2815 46.0704 49.7908 46.0436 50.2782 46.1562C50.7657 46.2688 51.2116 46.5162 51.5648 46.8701ZM30.4165 52.5974C32.3733 54.5519 35.3127 55.4333 39.9597 55.4462C44.7778 55.4321 47.7618 54.5106 49.717 52.4587C50.9213 51.1959 50.7049 49.6387 50.3129 48.5541C50.2891 48.4669 50.2473 48.3857 50.1901 48.3157C50.1328 48.2456 50.0615 48.1884 49.9807 48.1477C49.9 48.107 49.8115 48.0837 49.7212 48.0794C49.6308 48.075 49.5405 48.0897 49.4562 48.1224L44.601 49.7544C44.4321 49.8119 44.2929 49.9336 44.2134 50.0931C44.1339 50.2526 44.1207 50.437 44.1766 50.6063C44.3137 51.0464 44.4848 51.4752 44.6883 51.8889C44.7576 52.0191 44.7972 52.1628 44.8045 52.31C44.8117 52.4572 44.7864 52.6041 44.7302 52.7403C44.674 52.8766 44.5885 52.9987 44.4796 53.0981C44.3707 53.1975 44.2412 53.2716 44.1003 53.3153C41.4371 54.1983 38.5592 54.1975 35.8959 53.3129C35.755 53.2692 35.6255 53.195 35.5167 53.0955C35.4079 52.9961 35.3224 52.8738 35.2663 52.7375C35.2103 52.6012 35.1851 52.4543 35.1925 52.3071C35.1999 52.16 35.2398 52.0163 35.3093 51.8864C35.5112 51.4723 35.6816 51.0436 35.8188 50.6039C35.8729 50.4349 35.8589 50.2514 35.7795 50.0926C35.7002 49.9338 35.5618 49.8122 35.394 49.7538L30.5392 48.1191C30.3726 48.0639 30.1911 48.0753 30.0329 48.1511C29.8747 48.2269 29.7521 48.361 29.691 48.5253C29.29 49.6341 29.0771 51.1941 30.279 52.4563L30.4165 52.5974Z" fill="white"/>
<path d="M40 80C17.9445 80 0 62.0568 0 40C0 17.9432 17.9445 0 40 0C62.0555 0 80 17.9445 80 40C80 62.0555 62.0555 80 40 80ZM40 1.97847C19.0343 1.97847 1.97846 19.0343 1.97846 40C1.97846 60.9657 19.0343 78.0228 40 78.0228C60.9657 78.0228 78.0215 60.9657 78.0215 40C78.0215 19.0343 60.9657 1.97847 40 1.97847Z" fill="white"/>
<path d="M39.4961 65C34.3141 65.0078 29.2542 63.4265 24.9987 60.4695C24.8879 60.3984 24.7925 60.3056 24.7183 60.1968C24.6441 60.0881 24.5926 59.9655 24.5668 59.8363C24.541 59.7072 24.5414 59.5742 24.5681 59.4453C24.5947 59.3163 24.6471 59.194 24.722 59.0858C24.7969 58.9775 24.8929 58.8854 25.0041 58.8149C25.1154 58.7445 25.2397 58.6972 25.3696 58.6758C25.4996 58.6544 25.6325 58.6595 25.7604 58.6905C25.8884 58.7216 26.0088 58.7781 26.1144 58.8567C30.043 61.5844 34.7134 63.0423 39.4961 63.0338C52.4726 63.0338 63.0312 52.4752 63.0312 39.4987C63.0312 26.5222 52.4726 15.9636 39.4961 15.9636C26.5196 15.9636 15.961 26.5222 15.961 39.5V61.2462L22.0797 56.5694C22.2869 56.4331 22.538 56.3802 22.7826 56.4215C23.0272 56.4628 23.247 56.5952 23.3979 56.792C23.5488 56.9888 23.6196 57.2355 23.596 57.4824C23.5723 57.7293 23.4561 57.9581 23.2706 58.1227L15.5766 64.0033C15.4314 64.1141 15.2582 64.1822 15.0764 64.2C14.8946 64.2177 14.7114 64.1843 14.5476 64.1036C14.3837 64.0229 14.2457 63.898 14.1489 63.7431C14.0522 63.5882 14.0006 63.4093 14 63.2266V39.5C14 25.4413 25.4375 14 39.5 14C53.5625 14 65 25.4375 65 39.5C65 53.5625 53.5548 65 39.4961 65Z" fill="white"/>
<path d="M33.9932 41.9955C33.7649 41.9969 33.5433 41.9162 33.3659 41.767C33.1885 41.6179 33.0664 41.4095 33.0203 41.1774C32.9742 40.9453 33.0071 40.7039 33.1132 40.4941C33.2193 40.2843 33.3922 40.1191 33.6024 40.0267C34.031 39.8388 34.4244 39.6725 34.7748 39.5237C35.2581 39.3209 35.6945 39.137 36.0071 38.9828C36.0071 38.7719 36.0071 38.4866 35.9915 38.1986C35.4704 37.5793 34.8113 36.2109 34.7891 33.2793C34.7891 32.6424 34.7891 31.4647 35.4404 30.3748C35.8584 29.6532 36.4485 29.0556 37.1538 28.6397C37.8591 28.2238 38.6557 28.0036 39.4669 28.0004C39.4929 28.0004 39.5203 28.0004 39.5477 28.0004C40.3733 27.9897 41.1873 28.2037 41.9085 28.621C42.6298 29.0383 43.2332 29.6443 43.6588 30.3789C44.2436 31.3484 44.3101 32.349 44.3101 33.2861C44.2892 36.1946 43.6366 37.5644 43.1104 38.1959C43.0934 38.5339 43.0908 38.799 43.0934 38.9842C43.5259 39.2033 44.3257 39.5724 45.39 40.0294C45.5097 40.0808 45.6185 40.1561 45.7102 40.251C45.802 40.346 45.8748 40.4588 45.9245 40.583C45.9742 40.7072 45.9998 40.8403 46 40.9748C46.0001 41.1093 45.9748 41.2425 45.9253 41.3668C45.8759 41.4911 45.8034 41.604 45.7119 41.6992C45.6204 41.7944 45.5117 41.87 45.3921 41.9216C45.2724 41.9732 45.1442 41.9998 45.0146 42C44.8851 42.0002 44.7568 41.9738 44.637 41.9225C43.535 41.4506 42.1256 40.8205 41.6683 40.5068C41.1473 40.143 41.0418 39.5535 41.159 37.7578C41.1679 37.5936 41.2091 37.433 41.2801 37.286C41.3511 37.139 41.4505 37.0087 41.5719 36.9032C41.5889 36.8883 42.3144 36.1946 42.3366 33.2685C42.3366 32.6573 42.3197 32.0164 41.9875 31.466C41.7455 31.0359 41.3995 30.6788 40.9836 30.4303C40.5678 30.1817 40.0965 30.0503 39.6167 30.0489C39.1241 30.0481 38.6377 30.1632 38.1942 30.3856C37.7479 30.6405 37.3748 31.0138 37.113 31.4674C36.7861 32.0083 36.7626 32.6276 36.7639 33.2685C36.7861 36.1933 37.5129 36.887 37.5194 36.8937C37.6452 37.0024 37.7478 37.137 37.8209 37.289C37.894 37.441 37.9359 37.607 37.9441 37.7767C38.0848 39.7022 37.8881 40.1944 37.423 40.5081C36.9932 40.8056 36.3809 41.0652 35.5173 41.4263C35.1721 41.5723 34.7878 41.7332 34.371 41.9171C34.2512 41.9687 34.1229 41.9954 33.9932 41.9955Z" fill="white"/>
<path d="M18.9709 44.999C18.949 45.0003 18.927 45.0003 18.9051 44.999C18.6477 44.9792 18.4081 44.8513 18.2389 44.6433C18.0696 44.4353 17.9846 44.1642 18.0023 43.8893C18.0874 42.503 18.4872 40.9432 20.792 39.8886C21.3865 39.6133 21.9295 39.3806 22.4119 39.1727C23.0851 38.8822 23.65 38.6372 24.0382 38.4279C24.0473 38.1773 24.0472 37.7602 24.0137 37.131C24.0028 36.9921 24.018 36.8522 24.0586 36.7197C24.0991 36.5871 24.1641 36.4646 24.2497 36.3593C24.3354 36.2541 24.4399 36.1682 24.5572 36.1068C24.6744 36.0453 24.802 36.0096 24.9324 36.0017C25.0628 35.9938 25.1934 36.0138 25.3164 36.0607C25.4394 36.1075 25.5524 36.1802 25.6487 36.2745C25.7449 36.3687 25.8225 36.4826 25.8769 36.6094C25.9312 36.7361 25.9612 36.8733 25.9651 37.0126C26.0695 38.9703 25.9535 39.6077 25.4285 39.9781C24.9036 40.3484 24.1724 40.6664 23.1457 41.1056C22.6737 41.3107 22.1436 41.5393 21.5619 41.805C20.0465 42.4934 19.9988 43.2767 19.9524 44.0284C19.935 44.293 19.8239 44.5407 19.6415 44.721C19.4592 44.9013 19.2194 45.0007 18.9709 44.999Z" fill="white"/>
<path d="M27.9306 38C26.77 38 25.0703 37.8589 23.7121 36.6348C22.9315 35.9331 22.0316 34.6455 22 30.8879C22 30.1812 21.9836 28.863 22.8039 27.6478C23.9467 25.9572 25.748 25.0178 27.8798 25H27.9333C27.9876 25.0015 28.0416 25.0062 28.0952 25.014L27.9224 26.0055V25.9584L28.0842 26.908C28.0265 26.9191 27.9676 26.9238 27.9086 26.922C26.914 26.922 25.5271 27.2334 24.5586 28.666C24.0962 29.3486 24.0647 30.1291 24.0702 30.8689C24.0894 33.1468 24.4543 34.6213 25.1526 35.2505C25.7905 35.8251 26.6191 36.0704 27.9224 36.0704C28.062 36.0657 28.2012 36.0871 28.3318 36.1334C28.4623 36.1797 28.5814 36.2498 28.682 36.3397C28.7825 36.4296 28.8625 36.5373 28.9172 36.6565C28.9718 36.7757 29 36.9038 29 37.0333C29 37.1628 28.9718 37.2909 28.9172 37.4101C28.8625 37.5293 28.7825 37.637 28.682 37.7269C28.5814 37.8167 28.4623 37.8869 28.3318 37.9332C28.2012 37.9795 28.062 38.0009 27.9224 37.9962L27.9306 38Z" fill="white"/>
<path d="M37.0308 44C36.7842 43.9995 36.5471 43.9046 36.3676 43.7346C36.1882 43.5646 36.0798 43.3322 36.0645 43.0847C36.0171 42.3123 35.9723 41.5939 34.4634 40.9425C33.8849 40.6941 33.3589 40.4804 32.8917 40.2886C31.8678 39.8753 31.137 39.5741 30.6251 39.2342C30.1439 38.915 29.966 38.4348 30.1042 36.2952C30.1254 35.9363 30.2852 35.6 30.5496 35.358C30.6468 35.2679 31.5082 34.3796 31.5351 30.9424C31.5415 30.1932 31.5108 29.3976 31.0807 28.7101C30.1771 27.2593 28.8819 26.949 27.9553 26.9452H27.9092C27.6741 26.9303 27.4523 26.8299 27.2854 26.6626C27.1185 26.4953 27.0178 26.2727 27.0021 26.0362C26.9865 25.7997 27.0569 25.5656 27.2003 25.3775C27.3436 25.1895 27.5501 25.0603 27.7812 25.0142C27.8358 25.005 27.891 25.0003 27.9464 25C29.9621 25.0103 31.6579 25.9642 32.7228 27.6828C33.4907 28.9135 33.4792 30.2485 33.4728 30.9643C33.4459 34.4324 32.6204 35.9721 32.0265 36.6286C31.9958 37.1629 31.9945 37.5491 32.0035 37.7873C32.3874 37.9829 32.9506 38.2121 33.6174 38.4837C34.0961 38.6781 34.6413 38.8982 35.2262 39.1531C37.8332 40.277 37.9407 42.0265 37.9983 42.9663C38.0134 43.2238 37.9263 43.4768 37.7562 43.6698C37.5861 43.8629 37.3469 43.9802 37.0909 43.9961L37.0308 44Z" fill="white"/>
<path d="M42.9785 44.999C42.9566 45.0003 42.9346 45.0003 42.9127 44.999C42.7846 44.9902 42.6594 44.9545 42.5442 44.8939C42.429 44.8334 42.3262 44.7491 42.2416 44.646C42.157 44.5428 42.0923 44.4228 42.0512 44.2929C42.0101 44.163 41.9935 44.0257 42.0023 43.889C42.0887 42.5021 42.4872 40.9418 44.7917 39.8868C45.3875 39.6114 45.9292 39.3787 46.4128 39.1707C47.0847 38.8801 47.6495 38.635 48.0377 38.4256C48.048 38.175 48.0467 37.7577 48.0132 37.1297C48.0025 36.991 48.0179 36.8513 48.0584 36.719C48.099 36.5867 48.164 36.4644 48.2494 36.3593C48.3349 36.2542 48.4392 36.1685 48.5562 36.1071C48.6732 36.0456 48.8005 36.0098 48.9307 36.0018C49.0608 35.9937 49.1912 36.0135 49.314 36.06C49.4369 36.1065 49.5498 36.1788 49.6461 36.2726C49.7425 36.3664 49.8202 36.4798 49.8749 36.6062C49.9296 36.7326 49.96 36.8694 49.9644 37.0085C50.0702 38.9669 49.9541 39.6045 49.4279 39.9763C48.9018 40.3482 48.1718 40.6649 47.1453 41.1043C46.6733 41.3095 46.1433 41.5381 45.5616 41.8039C44.0476 42.4925 43.9986 43.2761 43.9522 44.0281C43.9349 44.2914 43.8249 44.5379 43.6442 44.7181C43.4635 44.8982 43.2257 44.9986 42.9785 44.999Z" fill="white"/>
<path d="M51.9846 37.9987C50.8134 37.9987 49.0982 37.8576 47.7277 36.6337C46.94 35.932 46.0332 34.6445 46 30.8874C46 30.1807 45.9834 28.8626 46.8126 27.6475C47.9644 25.9571 49.7821 25.0178 51.9348 25H51.9888C52.0435 25.0014 52.0981 25.0061 52.1521 25.014L51.9805 26.0054L51.9888 25.9634L52.1521 26.9129C52.0939 26.9244 52.0344 26.9291 51.9749 26.9269C50.9713 26.9269 49.5717 27.2383 48.5943 28.6707C48.1278 29.3532 48.096 30.1337 48.1029 30.8734C48.1223 33.1511 48.4891 34.6254 49.1938 35.2546C49.8375 35.8291 50.6736 36.0744 51.9888 36.0744C52.2603 36.0835 52.5174 36.1889 52.706 36.3684C52.8946 36.548 53 36.7877 53 37.0372C53 37.2867 52.8946 37.5264 52.706 37.706C52.5174 37.8855 52.2603 37.9909 51.9888 38L51.9846 37.9987Z" fill="white"/>
<path d="M61.0277 44C60.7814 43.9998 60.5445 43.9051 60.3651 43.7351C60.1857 43.5651 60.0774 43.3326 60.0621 43.0849C60.0149 42.3127 59.9714 41.5946 58.4643 40.9434C57.8883 40.695 57.3634 40.4813 56.8959 40.2896C55.8742 39.8765 55.1462 39.5753 54.634 39.2355C54.1551 38.9163 53.9763 38.4363 54.1142 36.2973C54.1354 35.9385 54.2949 35.6023 54.5587 35.3604C54.6557 35.2703 55.5153 34.3835 55.5421 30.9459C55.5421 30.1969 55.5179 29.4015 55.0887 28.7143C54.187 27.2638 52.8945 26.9537 51.9698 26.9498H51.9302C51.6894 26.9403 51.4608 26.8406 51.289 26.6703C51.1172 26.4999 51.0147 26.2711 51.0015 26.0287C50.9882 25.7862 51.0652 25.5474 51.2173 25.3591C51.3695 25.1708 51.5859 25.0464 51.8242 25.0103C51.8721 25.0037 51.9203 25.0002 51.9685 25C53.9788 25.0103 55.6724 25.964 56.7337 27.6821C57.5001 28.9125 57.4886 30.2471 57.4835 30.9627C57.4554 34.4299 56.6316 35.9691 56.039 36.6255C56.0083 37.1596 56.007 37.5457 56.0172 37.7838C56.4004 37.9794 56.9611 38.2085 57.6265 38.4801C58.1054 38.6744 58.6483 38.8945 59.2319 39.1493C61.8336 40.2729 61.9409 42.0219 61.9983 42.9614C62.0134 43.2188 61.9265 43.4718 61.7567 43.6648C61.587 43.8578 61.3482 43.9751 61.0928 43.991L61.0277 44Z" fill="white"/>
</svg>
