<svg width="80" height="80" viewBox="0 0 80 80" fill="none" xmlns="http://www.w3.org/2000/svg">
<path d="M40 80C17.9445 80 0 62.0568 0 40C0 17.9432 17.9432 0 40 0C62.0568 0 80 17.9445 80 40C80 62.0555 62.0555 80 40 80ZM40 1.97847C19.0343 1.97847 1.97715 19.0343 1.97715 40C1.97715 60.9657 19.0303 78.0228 40 78.0228C60.9697 78.0228 78.0189 60.9657 78.0189 40C78.0189 19.0343 60.9658 1.97847 40 1.97847Z" fill="white"/>
<path d="M40.109 66H39.9011C29.1218 65.9685 22.1907 63.6673 16.7244 58.309C13.9328 55.5722 13.2595 51.8369 14.8295 47.7893C15.4793 46.1008 17.1494 45 18.9884 45C19.4596 45 19.928 45.0721 20.3777 45.2139L30.3214 48.3391C30.8811 48.5106 31.4008 48.7942 31.8496 49.1729C32.2984 49.5515 32.6671 50.0176 32.9336 50.5432C33.1738 51.0247 33.3139 51.5506 33.3454 52.0887C33.3769 52.6268 33.2991 53.1657 33.1169 53.6724C32.8738 54.3507 32.6451 54.9372 32.4255 55.4396C34.8142 56.0353 37.0444 56.2741 40.0128 56.2741C42.9812 56.2741 45.1919 56.0353 47.5794 55.4396C47.3597 54.9372 47.131 54.3507 46.8893 53.6724C46.7065 53.1659 46.6284 52.6269 46.6597 52.0888C46.691 51.5507 46.831 51.0247 47.0712 50.5432C47.3376 50.0175 47.7062 49.5513 48.155 49.1726C48.6039 48.7939 49.1237 48.5104 49.6835 48.3391L59.6271 45.2139C60.0769 45.0722 60.5453 45.0001 61.0165 45C62.8568 45 64.5255 46.1008 65.1584 47.7395C66.7466 51.8369 66.0682 55.5722 63.2818 58.309C57.8167 63.6673 50.8857 65.9685 40.109 66ZM18.991 46.9903C17.9513 46.9903 17.0259 47.5847 16.6828 48.4676C15.3832 51.8172 15.8796 54.7115 18.0981 56.8855C21.6709 60.3898 27.0579 63.9769 39.905 64.0149H40.1051C52.9521 63.9769 58.3379 60.3898 61.9132 56.8855C64.1304 54.7115 64.6256 51.8185 63.3428 48.5162C62.8854 47.3354 61.4674 46.72 60.212 47.1136L50.2697 50.2388C49.9634 50.3288 49.6786 50.4809 49.4328 50.686C49.1869 50.8911 48.9852 51.1448 48.84 51.4315C48.7186 51.6735 48.6476 51.9381 48.6315 52.2089C48.6154 52.4797 48.6545 52.7509 48.7465 53.0059C49.1572 54.1591 49.5263 55.0303 49.8551 55.5971C49.9297 55.7279 49.9739 55.8742 49.9842 56.0249C49.9945 56.1755 49.9707 56.3266 49.9146 56.4665C49.8585 56.6065 49.7715 56.7318 49.6604 56.8328C49.5492 56.9338 49.4166 57.0079 49.2728 57.0495C46.233 57.9285 43.6389 58.2696 40.018 58.2696C36.3972 58.2696 33.7797 57.9285 30.7424 57.0495C30.5986 57.0079 30.4661 56.9338 30.3549 56.8328C30.2437 56.7318 30.1568 56.6065 30.1007 56.4665C30.0445 56.3266 30.0207 56.1755 30.0311 56.0249C30.0414 55.8742 30.0855 55.7279 30.1602 55.5971C30.4838 55.0303 30.8568 54.1539 31.2688 53.0059C31.3607 52.7509 31.3999 52.4797 31.3838 52.2089C31.3677 51.9381 31.2967 51.6735 31.1752 51.4315C31.0299 51.145 30.8281 50.8916 30.5823 50.6868C30.3364 50.4819 30.0517 50.3299 29.7456 50.2402L19.802 47.1136C19.5394 47.0315 19.2659 46.99 18.991 46.9903Z" fill="white"/>
<path d="M26.4374 45C26.2627 44.9999 26.0911 44.9551 25.9396 44.8699C25.7881 44.7848 25.662 44.6623 25.5738 44.5146C24.7902 43.1961 24.1969 41.7777 23.811 40.2997L19.8557 39.742C19.618 39.7082 19.4008 39.5918 19.2437 39.414C19.0865 39.2362 19 39.0089 19 38.7738V33.3313C19.0001 33.0959 19.0868 32.8685 19.2442 32.6907C19.4016 32.5129 19.6191 32.3966 19.857 32.3631L23.7952 31.8118C24.1909 30.292 24.8072 28.8357 25.6252 27.4872L23.2335 24.3748C23.0888 24.1865 23.0184 23.9533 23.0354 23.7182C23.0523 23.4831 23.1555 23.2619 23.3258 23.0954L27.2654 19.2446C27.4354 19.0781 27.661 18.9773 27.9008 18.9607C28.1406 18.9441 28.3785 19.0128 28.5707 19.1542L31.7534 21.4934C33.1291 20.6931 34.6146 20.0897 36.1649 19.7016L36.7345 15.8391C36.7687 15.6062 36.8876 15.3932 37.0692 15.2391C37.2508 15.085 37.483 15.0001 37.7233 15H43.2819C43.5221 15 43.7541 15.0847 43.9357 15.2386C44.1173 15.3924 44.2362 15.6051 44.2708 15.8378L44.8403 19.7029C46.3881 20.0923 47.8716 20.6947 49.2466 21.4921L52.4293 19.1542C52.6217 19.0131 52.8595 18.9446 53.0992 18.9612C53.3389 18.9778 53.5645 19.0784 53.7346 19.2446L57.6742 23.0954C57.8449 23.2616 57.9485 23.4828 57.9658 23.7179C57.983 23.9531 57.9126 24.1864 57.7678 24.3748L55.3748 27.4949C56.1906 28.8408 56.8043 30.2947 57.1969 31.8118L61.143 32.3631C61.3809 32.3966 61.5985 32.5129 61.7559 32.6907C61.9132 32.8685 61.9999 33.0959 62 33.3313V38.7738C62.0002 39.009 61.9138 39.2364 61.7567 39.4142C61.5995 39.5921 61.3821 39.7085 61.1443 39.742L57.1956 40.301C56.8119 41.7799 56.218 43.1987 55.4315 44.5159C55.3652 44.6267 55.2772 44.7236 55.1726 44.8011C55.0681 44.8786 54.949 44.9352 54.8221 44.9676C54.6952 45 54.563 45.0077 54.4331 44.9901C54.3032 44.9725 54.178 44.93 54.0649 44.8651C53.9517 44.8002 53.8528 44.7141 53.7736 44.6117C53.6945 44.5093 53.6367 44.3926 53.6036 44.2684C53.5704 44.1441 53.5626 44.0147 53.5806 43.8875C53.5986 43.7603 53.642 43.6378 53.7083 43.527C54.5047 42.19 55.0767 40.7364 55.4025 39.2218C55.4458 39.0178 55.5544 38.8327 55.7126 38.6934C55.8707 38.5541 56.0702 38.4679 56.2819 38.4472L60.0026 37.9205V34.1768L56.2344 33.654C56.0318 33.6256 55.8429 33.5369 55.6934 33.4C55.544 33.2631 55.441 33.0845 55.3985 32.8885C55.0283 31.1388 54.3281 29.4721 53.3338 27.9739C53.2219 27.8057 53.1654 27.6079 53.172 27.4073C53.1786 27.2066 53.248 27.0128 53.3707 26.8521L55.6543 23.8752L52.9383 21.2275L49.9058 23.4556C49.7427 23.5756 49.5459 23.6438 49.342 23.651C49.1381 23.6581 48.9369 23.6039 48.7654 23.4956C47.2337 22.5232 45.5329 21.8341 43.7474 21.4624C43.5475 21.4205 43.3654 21.3198 43.2257 21.1738C43.0859 21.0277 42.9951 20.8433 42.9655 20.6453L42.4223 16.9583H38.5988L38.0609 20.6362C38.0323 20.8342 37.9424 21.0188 37.8033 21.1651C37.6642 21.3115 37.4826 21.4125 37.283 21.4547C35.4991 21.8266 33.8006 22.5176 32.2729 23.4931C32.0988 23.6005 31.8958 23.6544 31.6902 23.6478C31.4845 23.6411 31.2856 23.5741 31.1192 23.4556L28.0868 21.2262L25.3734 23.8777L27.6556 26.8469C27.7834 27.0145 27.8529 27.2177 27.8541 27.4268C27.8553 27.6358 27.7881 27.8398 27.6622 28.0087C26.6804 29.4958 25.9859 31.1467 25.6134 32.8794C25.5707 33.0754 25.4677 33.2539 25.3182 33.3907C25.1688 33.5276 24.98 33.6163 24.7775 33.6449L21.0199 34.1716V37.9154L24.7854 38.4472C24.9876 38.4758 25.176 38.5644 25.3252 38.701C25.4744 38.8377 25.5773 39.0158 25.62 39.2115C25.9479 40.7256 26.5202 42.179 27.3155 43.5167C27.4041 43.6653 27.451 43.8342 27.4517 44.0063C27.4523 44.1783 27.4066 44.3475 27.3192 44.4968C27.2317 44.646 27.1056 44.7701 26.9536 44.8564C26.8015 44.9427 26.629 44.9882 26.4532 44.9884L26.4374 45Z" fill="white"/>
<path d="M39.9958 46C38.4273 45.9998 36.8809 45.6304 35.4815 44.9217C34.0821 44.2131 32.8691 43.185 31.9405 41.9206C31.0119 40.6562 30.3937 39.191 30.1359 37.6434C29.8782 36.0958 29.988 34.5092 30.4567 33.012C30.9254 31.5147 31.7397 30.1488 32.8337 29.0246C33.9278 27.9004 35.271 27.0495 36.7547 26.5406C38.2384 26.0317 39.8209 25.8792 41.3745 26.0954C42.928 26.3115 44.4089 26.8903 45.6974 27.7848C45.8025 27.8578 45.8922 27.9508 45.9613 28.0585C46.0305 28.1662 46.0778 28.2864 46.1004 28.4124C46.1231 28.5383 46.1208 28.6675 46.0936 28.7925C46.0664 28.9176 46.0148 29.0361 45.9418 29.1412C45.8689 29.2463 45.7759 29.336 45.6682 29.4052C45.5606 29.4743 45.4404 29.5216 45.3145 29.5443C45.1886 29.567 45.0594 29.5647 44.9344 29.5375C44.8094 29.5103 44.691 29.4587 44.5859 29.3857C43.1064 28.3604 41.326 27.8609 39.5293 27.967C37.7326 28.0731 36.0233 28.7787 34.6747 29.9709C33.3261 31.1631 32.4159 32.7732 32.0898 34.5437C31.7637 36.3142 32.0404 38.143 32.8757 39.7377C33.7109 41.3325 35.0566 42.601 36.6975 43.3407C38.3384 44.0803 40.1799 44.2483 41.9275 43.8179C43.6751 43.3874 45.228 42.3833 46.338 40.9661C47.4479 39.5489 48.0509 37.8003 48.0504 36C48.0456 35.869 48.0673 35.7384 48.1141 35.616C48.161 35.4936 48.232 35.3818 48.3229 35.2875C48.4139 35.1931 48.5229 35.1181 48.6435 35.0668C48.7641 35.0156 48.8938 34.9892 49.0249 34.9892C49.1559 34.9892 49.2856 35.0156 49.4062 35.0668C49.5268 35.1181 49.6358 35.1931 49.7268 35.2875C49.8178 35.3818 49.8888 35.4936 49.9356 35.616C49.9824 35.7384 50.0041 35.869 49.9994 36C49.9963 38.6523 48.9412 41.1951 47.0656 43.07C45.19 44.9448 42.6474 45.9986 39.9958 46Z" fill="white"/>
<path d="M39.1867 41C39.054 41.0001 38.9226 40.9737 38.8001 40.9222C38.6775 40.8706 38.5662 40.795 38.4725 40.6997L33.2956 35.4435C33.1063 35.2514 33 34.9909 33 34.7192C33 34.4475 33.1063 34.187 33.2956 33.9949C33.4848 33.8028 33.7415 33.6949 34.0091 33.6949C34.2768 33.6949 34.5335 33.8028 34.7227 33.9949L39.1867 38.5261L48.2773 29.3C48.4665 29.1079 48.7232 29 48.9908 29C49.1234 29 49.2546 29.0265 49.377 29.078C49.4995 29.1295 49.6107 29.2049 49.7044 29.3C49.7981 29.3951 49.8724 29.5081 49.9232 29.6323C49.9739 29.7566 50 29.8898 50 30.0243C50 30.1589 49.9739 30.2921 49.9232 30.4163C49.8724 30.5406 49.7981 30.6535 49.7044 30.7487L39.9009 40.7038C39.8069 40.7984 39.6954 40.8732 39.5729 40.924C39.4503 40.9749 39.3191 41.0007 39.1867 41Z" fill="white"/>
</svg>
