<svg width="80" height="80" viewBox="0 0 80 80" fill="none" xmlns="http://www.w3.org/2000/svg">
<path d="M40 80C17.9445 80 0 62.0565 0 39.9993C0 17.9422 17.9432 0 40 0C62.0568 0 80 17.9435 80 39.9993C80 62.0552 62.0555 80 40 80ZM40 1.9772C19.0343 1.9772 1.97715 19.0346 1.97715 39.9993C1.97715 60.9641 19.0343 78.0228 40 78.0228C60.9658 78.0228 78.0189 60.9654 78.0189 39.9993C78.0189 19.0333 60.9658 1.9772 40 1.9772Z" fill="white"/>
<path d="M55.383 64H24.6157C23.1253 63.9966 21.6971 63.4076 20.6445 62.3624C19.5918 61.3172 19.0006 59.9011 19.0007 58.4246V52.5948C18.9958 52.4634 19.0178 52.3323 19.0653 52.2094C19.1127 52.0866 19.1847 51.9744 19.2769 51.8798C19.3691 51.7851 19.4795 51.7097 19.6018 51.6583C19.724 51.6068 19.8554 51.5803 19.9882 51.5803C20.121 51.5803 20.2524 51.6068 20.3747 51.6583C20.4969 51.7097 20.6074 51.7851 20.6996 51.8798C20.7917 51.9744 20.8637 52.0866 20.9111 52.2094C20.9586 52.3323 20.9806 52.4634 20.9758 52.5948V58.4246C20.9758 59.3819 21.3589 60.3001 22.0412 60.978C22.7236 61.6559 23.6494 62.038 24.6157 62.0408H55.383C56.3496 62.0384 57.2757 61.6564 57.9583 60.9785C58.6409 60.3006 59.0243 59.3821 59.0243 58.4246V23.0145C59.0194 22.883 59.0414 22.752 59.0889 22.6291C59.1363 22.5062 59.2083 22.3941 59.3005 22.2994C59.3926 22.2047 59.5031 22.1294 59.6253 22.078C59.7476 22.0265 59.879 22 60.0118 22C60.1446 22 60.276 22.0265 60.3982 22.078C60.5205 22.1294 60.631 22.2047 60.7231 22.2994C60.8153 22.3941 60.8873 22.5062 60.9347 22.6291C60.9822 22.752 61.0042 22.883 60.9993 23.0145V58.4246C60.9994 59.9013 60.408 61.3176 59.3551 62.3629C58.3022 63.4081 56.8736 63.9969 55.383 64Z" fill="white"/>
<path d="M20.0007 35C19.7354 35 19.4811 34.8972 19.2935 34.7143C19.106 34.5313 19.0007 34.2832 19.0007 34.0245V23.0109C18.9958 22.8799 19.018 22.7493 19.066 22.6269C19.1141 22.5044 19.1869 22.3927 19.2802 22.2984C19.3734 22.204 19.4853 22.1289 19.6089 22.0777C19.7326 22.0264 19.8656 22 20 22C20.1344 22 20.2674 22.0264 20.3911 22.0777C20.5147 22.1289 20.6266 22.204 20.7198 22.2984C20.8131 22.3927 20.8859 22.5044 20.934 22.6269C20.982 22.7493 21.0042 22.8799 20.9993 23.0109V34.0245C20.9995 34.1525 20.9738 34.2794 20.9237 34.3977C20.8736 34.5161 20.8001 34.6236 20.7073 34.7142C20.6146 34.8048 20.5044 34.8767 20.3831 34.9257C20.2619 34.9747 20.1319 35 20.0007 35Z" fill="white"/>
<path d="M60.0169 25H19.9883C19.7262 25 19.4748 24.8986 19.2895 24.718C19.1041 24.5374 19 24.2925 19 24.0371V21.7163C19 20.2002 19.6182 18.7463 20.7185 17.6743C21.8189 16.6022 23.3113 16 24.8674 16H55.1326C56.6882 16.0017 58.1796 16.6045 59.2796 17.6761C60.3795 18.7478 60.9983 20.2008 61 21.7163V24.0371C60.9997 24.2915 60.8962 24.5355 60.712 24.7158C60.5279 24.8962 60.278 24.9983 60.0169 25ZM20.9819 23.0742H59.0299V21.7163C59.0288 20.711 58.6185 19.7471 57.8888 19.0362C57.1591 18.3253 56.1698 17.9255 55.1378 17.9245H24.8726C23.8409 17.9258 22.8519 18.3258 22.1225 19.0366C21.3931 19.7475 20.9829 20.7112 20.9819 21.7163V23.0742Z" fill="white"/>
<path d="M49 20C48.8022 20 48.6089 20.0586 48.4444 20.1685C48.28 20.2784 48.1518 20.4346 48.0761 20.6173C48.0004 20.8 47.9806 21.0011 48.0192 21.1951C48.0578 21.3891 48.153 21.5673 48.2929 21.7071C48.4327 21.847 48.6109 21.9422 48.8049 21.9808C48.9989 22.0194 49.2 21.9996 49.3827 21.9239C49.5654 21.8482 49.7216 21.72 49.8315 21.5556C49.9414 21.3911 50 21.1978 50 21C49.9997 20.7349 49.8942 20.4807 49.7068 20.2932C49.5193 20.1058 49.2651 20.0003 49 20Z" fill="white"/>
<path d="M44 20C43.8022 20 43.6089 20.0586 43.4444 20.1685C43.28 20.2784 43.1518 20.4346 43.0761 20.6173C43.0004 20.8 42.9806 21.0011 43.0192 21.1951C43.0578 21.3891 43.153 21.5673 43.2929 21.7071C43.4327 21.847 43.6109 21.9422 43.8049 21.9808C43.9989 22.0194 44.2 21.9996 44.3827 21.9239C44.5654 21.8482 44.7216 21.72 44.8315 21.5556C44.9413 21.3911 45 21.1978 45 21C44.9997 20.7349 44.8942 20.4807 44.7068 20.2932C44.5193 20.1058 44.2651 20.0003 44 20Z" fill="white"/>
<path d="M54 20C53.8022 20 53.6089 20.0586 53.4444 20.1685C53.28 20.2784 53.1518 20.4346 53.0761 20.6173C53.0004 20.8 52.9806 21.0011 53.0192 21.1951C53.0578 21.3891 53.153 21.5673 53.2929 21.7071C53.4327 21.847 53.6109 21.9422 53.8049 21.9808C53.9989 22.0194 54.1999 21.9996 54.3827 21.9239C54.5654 21.8482 54.7216 21.72 54.8314 21.5556C54.9413 21.3911 55 21.1978 55 21C54.9997 20.7349 54.8942 20.4807 54.7067 20.2932C54.5193 20.1058 54.2651 20.0003 54 20Z" fill="white"/>
<path d="M45.2917 54.9993H37.0217C36.8881 55.0042 36.7549 54.9821 36.63 54.9342C36.5051 54.8864 36.3912 54.8139 36.2949 54.721C36.1987 54.6281 36.1221 54.5168 36.0698 54.3936C36.0176 54.2705 35.9906 54.138 35.9906 54.0042C35.9906 53.8704 36.0176 53.738 36.0698 53.6148C36.1221 53.4917 36.1987 53.3803 36.2949 53.2874C36.3912 53.1945 36.5051 53.122 36.63 53.0742C36.7549 53.0264 36.8881 53.0042 37.0217 53.0091H45.2917C46.4699 53.0472 47.6438 52.8479 48.7436 52.4229C49.8434 51.998 50.8466 51.3561 51.6936 50.5355C52.5405 49.7148 53.214 48.7321 53.6739 47.6457C54.1339 46.5594 54.3709 45.3916 54.3709 44.2118C54.3709 43.032 54.1339 41.8642 53.6739 40.7779C53.214 39.6916 52.5405 38.7089 51.6936 37.8882C50.8466 37.0675 49.8434 36.4256 48.7436 36.0007C47.6438 35.5757 46.4699 35.3764 45.2917 35.4146C45.1525 35.4146 45.0121 35.4145 44.8808 35.4224C44.6916 35.4369 44.5024 35.396 44.336 35.3048C44.1696 35.2136 44.0333 35.0761 43.9435 34.9088C42.9803 33.1522 41.4853 31.7466 39.6735 30.8941C37.8616 30.0415 35.8263 29.7859 33.8602 30.1641C31.8941 30.5422 30.0984 31.5346 28.7314 32.9985C27.3644 34.4625 26.4965 36.3225 26.2525 38.3113C26.2361 38.4447 26.1927 38.5733 26.125 38.6894C26.0573 38.8055 25.9667 38.9066 25.8587 38.9865C25.7514 39.0669 25.6291 39.1249 25.499 39.1572C25.3689 39.1895 25.2337 39.1953 25.1013 39.1744C24.7209 39.1098 24.3359 39.0764 23.9501 39.0746C22.1037 39.0746 20.3329 39.8086 19.0273 41.1152C17.7217 42.4218 16.9882 44.194 16.9882 46.0418C16.9882 47.8897 17.7217 49.6618 19.0273 50.9684C20.3329 52.275 22.1037 53.0091 23.9501 53.0091H27.0191C27.2766 53.0184 27.5204 53.1274 27.6992 53.313C27.8781 53.4986 27.978 53.7464 27.978 54.0042C27.978 54.2621 27.8781 54.5099 27.6992 54.6955C27.5204 54.8811 27.2766 54.99 27.0191 54.9993H23.9501C22.7543 54.9994 21.5707 54.7596 20.4691 54.2942C19.3675 53.8288 18.3703 53.1472 17.5363 52.2897C16.7023 51.4322 16.0485 50.4161 15.6134 49.3014C15.1784 48.1868 14.9709 46.9962 15.0033 45.8C15.0356 44.6038 15.3072 43.4262 15.8019 42.3367C16.2966 41.2473 17.0044 40.2681 17.8836 39.457C18.7627 38.6459 19.7953 38.0194 20.9205 37.6143C22.0456 37.2093 23.2405 37.0339 24.4344 37.0987C24.906 34.8589 26.0369 32.8118 27.6814 31.2209C29.3259 29.63 31.4087 28.5683 33.6614 28.1726C35.9142 27.7769 38.2337 28.0652 40.3213 29.0005C42.4088 29.9358 44.1688 31.4752 45.3744 33.4203C48.2138 33.461 50.9226 34.6213 52.9122 36.6492C54.9017 38.6771 56.0113 41.4088 55.9999 44.2508C55.9885 47.0928 54.857 49.8154 52.8512 51.8273C50.8455 53.8391 48.1274 54.9776 45.2877 54.9954L45.2917 54.9993Z" fill="white"/>
<path d="M30.6541 58C30.2634 58.0004 29.8774 57.9147 29.5237 57.7489C27.3291 56.7207 26.056 54.9181 26.0031 52.789C25.9185 49.3648 27.5552 46.1533 31.3111 42.3749C35.0736 38.6375 38.2108 37 41.5477 37H41.7949C43.9234 37.0515 45.7266 38.3216 46.7433 40.493C47.0422 41.1279 47.0817 41.8543 46.8533 42.5179C46.625 43.1815 46.1468 43.73 45.5204 44.0467L40.9329 46.3225C40.5629 46.5053 40.1558 46.6006 39.7431 46.6013C39.2454 46.6032 38.7572 46.4657 38.3338 46.2043C37.9104 45.9429 37.5687 45.5681 37.3475 45.1225C37.2709 44.9692 37.1995 44.8238 37.136 44.6864C35.7388 45.552 34.5599 46.7277 33.6908 48.1225C33.823 48.1872 33.975 48.2546 34.1284 48.3352C34.7604 48.6534 35.2411 49.2083 35.4657 49.8792C35.6903 50.55 35.6406 51.2824 35.3275 51.9168L33.0522 56.5027C32.8335 56.9522 32.4925 57.331 32.0684 57.5958C31.6443 57.8607 31.1541 58.0007 30.6541 58ZM41.5477 39.0022C38.782 39.0022 36.081 40.456 32.7878 43.7308C29.3928 47.1458 27.9359 49.9066 28.006 52.7401C28.0483 54.4846 29.3029 55.4335 30.3474 55.9238C30.4258 55.9687 30.5129 55.9966 30.6029 56.0057C30.6928 56.0148 30.7837 56.0048 30.8696 55.9765C30.9555 55.9483 31.0345 55.9023 31.1014 55.8415C31.1684 55.7807 31.2218 55.7065 31.2582 55.6238L33.5348 51.0379C33.6134 50.8779 33.6258 50.6934 33.5691 50.5244C33.5124 50.3553 33.3913 50.2155 33.232 50.1353C32.8237 49.9208 32.3994 49.7383 31.9629 49.5894C31.8219 49.5463 31.6921 49.4726 31.5829 49.3736C31.4736 49.2746 31.3876 49.1527 31.3309 49.0167C31.2742 48.8806 31.2483 48.7337 31.2549 48.5864C31.2615 48.4392 31.3006 48.2952 31.3693 48.1648C32.6266 45.6579 34.6611 43.6246 37.1691 42.3683C37.2995 42.2996 37.4436 42.2606 37.5908 42.2541C37.7381 42.2476 37.8851 42.2736 38.0211 42.3305C38.1571 42.3873 38.2789 42.4734 38.3778 42.5828C38.4766 42.6921 38.5501 42.822 38.5929 42.963C38.7431 43.3987 38.9261 43.8223 39.1402 44.2304C39.2215 44.3883 39.3613 44.5081 39.5297 44.5644C39.6982 44.6207 39.882 44.609 40.0419 44.5317L44.6293 42.2573C44.7862 42.1787 44.9063 42.0423 44.9645 41.8769C45.0227 41.7115 45.0144 41.5299 44.9413 41.3705C44.4403 40.3027 43.4871 39.0485 41.7447 39.0049L41.5477 39.0022Z" fill="white"/>
</svg>
