<svg width="255" height="36" viewBox="0 0 255 36" fill="none" xmlns="http://www.w3.org/2000/svg">
<path d="M29 0.5V7.02445H18.4392V34.5H10.5608V7.02445H0V0.5H29Z" fill="white"/>
<path d="M34 34.5V0.5H57.831V6.92532H41.9437V13.5917H56.0482V19.8802H41.9437V28.073H59V34.4983L34 34.5Z" fill="white"/>
<path d="M87 27.926V34.5H64V0.5H71.7503V27.926H87Z" fill="white"/>
<path d="M93 34.5V0.5H116.828V6.92532H100.944V13.5917H115.045V19.8802H100.944V28.073H118V34.4983L93 34.5Z" fill="white"/>
<path d="M133.624 0.5C138.897 0.5 142.944 1.40685 145.765 3.22054C148.586 5.03424 149.998 8.00468 150 12.1319C150 16.2939 148.572 19.2979 145.717 21.1441C142.861 22.9903 138.78 23.9139 133.472 23.9151H130.959V35.5H123V1.40627C124.82 1.06254 126.66 0.830158 128.509 0.71048C130.453 0.572482 132.158 0.502319 133.624 0.5ZM134.134 7.13958C133.557 7.13958 132.988 7.15697 132.427 7.19176C131.867 7.22307 131.38 7.25786 130.973 7.28917V17.2738H133.472C136.226 17.2738 138.3 16.9085 139.692 16.1779C141.084 15.4473 141.781 14.0824 141.784 12.0832C141.784 11.1195 141.606 10.3211 141.251 9.68791C140.891 9.05334 140.362 8.52612 139.72 8.16239C138.97 7.75306 138.15 7.48241 137.3 7.36398C136.249 7.20705 135.188 7.13201 134.126 7.13958H134.134Z" fill="white"/>
<path d="M206.378 0.5C211.7 0.5 215.776 1.42424 218.605 3.27273C221.434 5.12121 222.849 7.99134 222.851 11.8831C222.851 14.3184 222.28 16.2898 221.138 17.7974C219.996 19.3049 218.35 20.4953 216.201 21.3685C216.914 22.2347 217.664 23.2251 218.452 24.3395C219.24 25.4539 220.015 26.6194 220.779 27.8359C221.546 29.0523 222.288 30.3164 223.006 31.6279C223.723 32.9395 224.388 34.2296 225 35.4983H216.078C215.429 34.3664 214.771 33.2172 214.103 32.0506C213.435 30.884 212.754 29.7539 212.059 28.6604C211.355 27.561 210.661 26.5208 209.977 25.5398C209.292 24.5587 208.607 23.6681 207.92 22.8679H203.983V35.5H196V1.40627C197.783 1.06792 199.586 0.835559 201.399 0.71048C203.252 0.572482 204.912 0.502319 206.378 0.5ZM206.84 7.13958C206.259 7.13958 205.74 7.15697 205.277 7.19176C204.814 7.22655 204.386 7.25786 203.974 7.28917V16.6823H206.223C209.226 16.6823 211.375 16.3159 212.67 15.583C213.965 14.8501 214.613 13.6029 214.614 11.8414C214.614 10.1402 213.961 8.9324 212.654 8.21805C211.347 7.50371 209.409 7.14422 206.84 7.13958Z" fill="white"/>
<path d="M255 0.5V7.02445H244.44V34.5H236.56V7.02445H226V0.5H255Z" fill="white"/>
<path d="M186.7 11.1023C185.913 9.11009 184.709 7.30171 183.166 5.79383C181.681 4.36739 179.9 3.27098 177.944 2.57892C173.976 1.16123 169.215 1.11964 165.166 2.57892C163.559 3.12829 162.069 3.96442 160.772 5.04513C160.666 5.13526 159.599 5.85103 159.288 6.64479L160.097 10.6465C161.782 10.4212 164.16 9.03301 164.701 8.90302C165.41 8.24161 166.219 7.69257 167.1 7.27564C169.609 6.0746 173.197 6.04514 175.836 7.24098C177.125 7.82391 178.256 8.69462 179.14 9.78344C180.049 10.9345 180.727 12.2442 181.138 13.6431C181.607 15.229 181.836 16.874 181.817 18.5252C181.837 20.1703 181.608 21.8092 181.138 23.3883C180.722 24.7765 180.045 26.0757 179.14 27.2185C178.257 28.3077 177.125 29.178 175.836 29.7592C173.227 30.9482 169.621 30.9187 167.107 29.7592C165.832 29.1742 164.713 28.3062 163.839 27.2237C162.934 26.0806 162.259 24.7798 161.848 23.3901C161.381 21.8109 161.153 20.1729 161.173 18.5287C161.173 18.1665 161.203 17.4576 161.203 17.4576L157.215 18.6587L155.074 16.6656C155.074 16.6656 155 17.8892 155 18.5287C155 21.345 155.436 23.8407 156.297 25.9499C157.074 27.9352 158.274 29.7353 159.816 31.2306C161.311 32.6441 163.094 33.7319 165.047 34.423C169.123 35.8806 174.093 35.8372 178.085 34.423C180.031 33.7422 181.802 32.6547 183.276 31.2359C184.79 29.7307 185.965 27.9305 186.724 25.9516C187.571 23.8407 188 21.3433 188 18.5252C188 15.7072 187.558 13.2115 186.7 11.1023Z" fill="#FD0101"/>
<path d="M176 29.0135C173.203 30.5691 169.438 30.7766 166.71 29.4573C165.397 28.8195 163.083 27.0818 162.023 24.7333C160.628 21.6358 160.851 18.0203 160.901 17.5176C160.92 17.3489 157.012 18.4455 157.007 18.6176C156.729 26.8861 165.171 36.0015 176 29.0135Z" fill="url(#paint0_radial_109_330)"/>
<path d="M169 9.03508L158.125 13.5L157 1.5L161.136 7.93764L169 9.03508Z" fill="#FD0101"/>
<defs>
<radialGradient id="paint0_radial_109_330" cx="0" cy="0" r="1" gradientUnits="userSpaceOnUse" gradientTransform="translate(166.749 26.5234) scale(14.305 13.976)">
<stop stop-color="#FF0F0F"/>
<stop offset="0.47" stop-color="#EC1010"/>
<stop offset="0.67" stop-color="#F10E0E"/>
<stop offset="0.82" stop-color="#F00C0C"/>
<stop offset="0.94" stop-color="#EF0C0C"/>
<stop offset="1" stop-color="#DD0E0E"/>
</radialGradient>
</defs>
</svg>
