<svg width="256" height="35" viewBox="0 0 256 35" fill="none" xmlns="http://www.w3.org/2000/svg">
<path d="M29 0V6.71635H18.4392V35H10.5608V6.71635H0V0H29Z" fill="#020D1D"/>
<path d="M34 35V0H57.831V6.6143H41.9437V13.4767H56.0482V19.9502H41.9437V28.3839H59V34.9982L34 35Z" fill="#020D1D"/>
<path d="M87 28.2326V35H64V0H71.7503V28.2326H87Z" fill="#020D1D"/>
<path d="M93 35V0H116.828V6.6143H100.944V13.4767H115.045V19.9502H100.944V28.3839H118V34.9982L93 35Z" fill="#020D1D"/>
<path d="M133.624 0C138.897 0 142.944 0.906849 145.765 2.72054C148.586 4.53424 149.998 7.50468 150 11.6319C150 15.7939 148.572 18.7979 145.717 20.6441C142.861 22.4903 138.78 23.4139 133.472 23.4151H130.959V35H123V0.906271C124.82 0.562539 126.66 0.330158 128.509 0.21048C130.453 0.072482 132.158 0.0023193 133.624 0ZM134.134 6.63958C133.557 6.63958 132.988 6.65697 132.427 6.69176C131.867 6.72307 131.38 6.75786 130.973 6.78917V16.7738H133.472C136.226 16.7738 138.3 16.4085 139.692 15.6779C141.084 14.9473 141.781 13.5824 141.784 11.5832C141.784 10.6195 141.606 9.82108 141.251 9.18791C140.891 8.55334 140.362 8.02612 139.72 7.66239C138.97 7.25306 138.15 6.98241 137.3 6.86398C136.249 6.70705 135.188 6.63201 134.126 6.63958H134.134Z" fill="#020D1D"/>
<path d="M205.021 0C210.159 0 214.094 0.924242 216.826 2.77273C219.557 4.62121 220.924 7.49134 220.925 11.3831C220.925 13.8184 220.373 15.7898 219.271 17.2973C218.168 18.8049 216.579 19.9953 214.504 20.8685C215.192 21.7347 215.917 22.7251 216.678 23.8395C217.438 24.9539 218.187 26.1194 218.925 27.3359C219.665 28.5523 220.381 29.8164 221.074 31.1279C221.767 32.4395 222.409 33.7296 223 34.9983H214.385C213.759 33.8664 213.123 32.7172 212.479 31.5506C211.834 30.384 211.176 29.2539 210.505 28.1604C209.826 27.061 209.156 26.0208 208.495 25.0398C207.834 24.0587 207.172 23.1681 206.509 22.3679H202.708V35H195V0.906271C196.722 0.567916 198.463 0.335559 200.212 0.21048C202.002 0.072482 203.605 0.0023193 205.021 0ZM205.466 6.63958C204.905 6.63958 204.404 6.65697 203.957 6.69176C203.51 6.72655 203.097 6.75786 202.699 6.78917V16.1823H204.871C207.77 16.1823 209.845 15.8159 211.095 15.083C212.346 14.3501 212.971 13.1029 212.973 11.3414C212.973 9.64018 212.342 8.4324 211.08 7.71805C209.818 7.00371 207.947 6.64422 205.466 6.63958Z" fill="#020D1D"/>
<path d="M254 0V6.71635H243.44V35H235.56V6.71635H225V0H254Z" fill="#020D1D"/>
<path d="M186.7 10.6023C185.913 8.61009 184.709 6.80171 183.166 5.29383C181.681 3.86739 179.9 2.77098 177.944 2.07892C173.976 0.661234 169.215 0.619639 165.166 2.07892C163.559 2.62829 162.069 3.46442 160.772 4.54513C160.666 4.63526 159.599 5.35103 159.288 6.14479L160.097 10.1465C161.782 9.92122 164.16 8.53301 164.701 8.40302C165.41 7.74161 166.219 7.19257 167.1 6.77564C169.609 5.5746 173.197 5.54514 175.836 6.74098C177.125 7.32391 178.256 8.19462 179.14 9.28344C180.049 10.4345 180.727 11.7442 181.138 13.1431C181.607 14.729 181.836 16.374 181.817 18.0252C181.837 19.6703 181.608 21.3092 181.138 22.8883C180.722 24.2765 180.045 25.5757 179.14 26.7185C178.257 27.8077 177.125 28.678 175.836 29.2592C173.227 30.4482 169.621 30.4187 167.107 29.2592C165.832 28.6742 164.713 27.8062 163.839 26.7237C162.934 25.5806 162.259 24.2798 161.848 22.8901C161.381 21.3109 161.153 19.6729 161.173 18.0287C161.173 17.6665 161.203 16.9576 161.203 16.9576L157.215 18.1587L155.074 16.1656C155.074 16.1656 155 17.3892 155 18.0287C155 20.845 155.436 23.3407 156.297 25.4499C157.074 27.4352 158.274 29.2353 159.816 30.7306C161.311 32.1441 163.094 33.2319 165.047 33.923C169.123 35.3806 174.093 35.3372 178.085 33.923C180.031 33.2422 181.802 32.1547 183.276 30.7359C184.79 29.2307 185.965 27.4305 186.724 25.4516C187.571 23.3407 188 20.8433 188 18.0252C188 15.2072 187.558 12.7115 186.7 10.6023Z" fill="#FD0101"/>
<path d="M176 28.5135C173.203 30.0691 169.438 30.2766 166.71 28.9573C165.397 28.3195 163.083 26.5818 162.023 24.2333C160.628 21.1358 160.851 17.5203 160.901 17.0176C160.92 16.8489 157.012 17.9455 157.007 18.1176C156.729 26.3861 165.171 35.5015 176 28.5135Z" fill="url(#paint0_radial_112_293)"/>
<path d="M169 8.53508L158.125 13L157 1L161.136 7.43764L169 8.53508Z" fill="#FD0101"/>
<defs>
<radialGradient id="paint0_radial_112_293" cx="0" cy="0" r="1" gradientUnits="userSpaceOnUse" gradientTransform="translate(166.749 26.0234) scale(14.305 13.976)">
<stop stop-color="#FF0F0F"/>
<stop offset="0.47" stop-color="#EC1010"/>
<stop offset="0.67" stop-color="#F10E0E"/>
<stop offset="0.82" stop-color="#F00C0C"/>
<stop offset="0.94" stop-color="#EF0C0C"/>
<stop offset="1" stop-color="#DD0E0E"/>
</radialGradient>
</defs>
</svg>
