<svg width="41" height="35" viewBox="0 0 41 35" fill="none" xmlns="http://www.w3.org/2000/svg">
<path d="M37.0777 19.8715C35.601 25.8066 30.556 29.7878 24.157 29.9778C20.3201 30.2397 16.8657 28.6114 14.4492 25.8164C11.6 22.2915 11.7465 17.4658 14.7896 14.5861C16.9217 12.6704 20.7586 12.5725 22.266 15.1883C22.8891 16.4068 22.4764 17.783 21.2352 18.8395C21.2035 18.8767 21.1782 18.9306 21.201 19.052C21.5306 20.3249 23.3988 20.1178 24.162 19.731C27.9929 17.6166 27.1808 12.3443 23.7195 9.8392C21.8206 8.48896 19.6614 7.88434 17.4799 8.08996C7.44936 9.07449 3.93561 21.4 9.94958 28.9242C14.0429 34.3423 21.3762 35.8732 27.6812 34.5543C36.373 32.7331 40.8335 25.4086 40.9938 17.9656C41.2349 6.74999 34.3301 2.12206 32.3213 1.01465C32.3015 1.00208 32.2776 0.997361 32.2545 1.00142C32.2313 1.00547 32.2106 1.01801 32.1963 1.03654C32.1821 1.05507 32.1754 1.07822 32.1777 1.10138C32.1799 1.12454 32.1909 1.14602 32.2085 1.16152C33.8609 2.86719 39.6081 9.70212 37.0777 19.8715Z" fill="#020D1D"/>
<path d="M3.92226 15.1288C5.39903 9.19411 10.444 5.21317 16.843 5.02323C20.6799 4.76133 24.1343 6.38954 26.5508 9.18432C29.4 12.709 29.2535 17.5344 26.2104 20.4139C24.0783 22.3299 20.2414 22.4293 18.734 19.8137C18.1109 18.5952 18.5236 17.2191 19.7648 16.1627C19.797 16.1255 19.8218 16.0716 19.799 15.9502C19.4694 14.6774 17.6012 14.8845 16.838 15.2712C13.007 17.3856 13.8192 22.6574 17.2805 25.1599C19.1794 26.5101 21.3386 27.1147 23.5201 26.9091C33.5506 25.9251 37.0644 13.6004 31.0504 6.07672C26.9571 0.657522 19.6238 -0.874736 13.3188 0.44702C4.62699 2.26811 0.166502 9.5921 0.00615573 17.0346C-0.234858 28.2529 6.66992 32.878 8.6787 33.9854C8.69849 33.9979 8.72235 34.0026 8.74551 33.9986C8.76867 33.9945 8.78944 33.982 8.80367 33.9635C8.81791 33.9449 8.82456 33.9218 8.82231 33.8986C8.82006 33.8755 8.80907 33.854 8.79153 33.8385C7.13908 32.132 1.39186 25.2975 3.92226 15.1288Z" fill="#020D1D"/>
</svg>
