<svg width="41" height="36" viewBox="0 0 41 36" fill="none" xmlns="http://www.w3.org/2000/svg">
<path d="M37.0777 20.3715C35.601 26.3066 30.556 30.2878 24.157 30.4778C20.3201 30.7397 16.8657 29.1114 14.4492 26.3164C11.6 22.7915 11.7465 17.9658 14.7896 15.0861C16.9217 13.1704 20.7586 13.0725 22.266 15.6883C22.8891 16.9068 22.4764 18.283 21.2352 19.3395C21.2035 19.3767 21.1782 19.4306 21.201 19.552C21.5306 20.8249 23.3988 20.6178 24.162 20.231C27.9929 18.1166 27.1808 12.8443 23.7195 10.3392C21.8206 8.98896 19.6614 8.38434 17.4799 8.58996C7.44936 9.57449 3.93561 21.9 9.94958 29.4242C14.0429 34.8423 21.3762 36.3732 27.6812 35.0543C36.373 33.2331 40.8335 25.9086 40.9938 18.4656C41.2349 7.24999 34.3301 2.62206 32.3213 1.51465C32.3015 1.50208 32.2776 1.49736 32.2545 1.50142C32.2313 1.50547 32.2106 1.51801 32.1963 1.53654C32.1821 1.55507 32.1754 1.57822 32.1777 1.60138C32.1799 1.62454 32.1909 1.64602 32.2085 1.66152C33.8609 3.36719 39.6081 10.2021 37.0777 20.3715Z" fill="white"/>
<path d="M3.92226 15.6288C5.39903 9.69411 10.444 5.71317 16.843 5.52323C20.6799 5.26133 24.1343 6.88954 26.5508 9.68432C29.4 13.209 29.2535 18.0344 26.2104 20.9139C24.0783 22.8299 20.2414 22.9293 18.734 20.3137C18.1109 19.0952 18.5236 17.7191 19.7648 16.6627C19.797 16.6255 19.8218 16.5716 19.799 16.4502C19.4694 15.1774 17.6012 15.3845 16.838 15.7712C13.007 17.8856 13.8192 23.1574 17.2805 25.6599C19.1794 27.0101 21.3386 27.6147 23.5201 27.4091C33.5506 26.4251 37.0644 14.1004 31.0504 6.57672C26.9571 1.15752 19.6238 -0.374736 13.3188 0.94702C4.62699 2.76811 0.166502 10.0921 0.00615573 17.5346C-0.234858 28.7528 6.66992 33.378 8.6787 34.4854C8.69849 34.4979 8.72235 34.5026 8.74551 34.4986C8.76867 34.4945 8.78944 34.482 8.80367 34.4635C8.81791 34.4449 8.82456 34.4218 8.82231 34.3986C8.82006 34.3755 8.80907 34.354 8.79153 34.3385C7.13908 32.632 1.39186 25.7975 3.92226 15.6288Z" fill="white"/>
</svg>
