<svg width="22" height="22" viewBox="0 0 22 22" fill="none" xmlns="http://www.w3.org/2000/svg">
<path d="M21.3431 18.2949C21.7123 18.7051 21.7123 19.3203 21.3021 19.6895L20.1537 20.8379C19.7845 21.248 19.1693 21.248 18.7592 20.8379L14.6986 16.7773C14.4935 16.5723 14.4115 16.3262 14.4115 16.0801V15.3828C12.9349 16.5312 11.1302 17.1875 9.1615 17.1875C4.4447 17.1875 0.630249 13.373 0.630249 8.65625C0.630249 3.98047 4.4447 0.125 9.1615 0.125C13.8373 0.125 17.6927 3.98047 17.6927 8.65625C17.6927 10.666 16.9955 12.4707 15.8881 13.9062H16.5443C16.7904 13.9062 17.0365 14.0293 17.2416 14.1934L21.3431 18.2949ZM9.1615 13.9062C12.0326 13.9062 14.4115 11.5684 14.4115 8.65625C14.4115 5.78516 12.0326 3.40625 9.1615 3.40625C6.24939 3.40625 3.9115 5.78516 3.9115 8.65625C3.9115 11.5684 6.24939 13.9062 9.1615 13.9062Z" fill="#FFFFFF"/>
</svg>
